<mxfile host="app.diagrams.net" modified="2023-03-20T05:31:54.580Z" agent="5.0 (Windows NT 10.0; Win64; x64) AppleWebKit/537.36 (KHTML, like Gecko) Chrome/111.0.0.0 Safari/537.36" etag="Nbsb-uV6PmtXR5YlNk_A" version="21.0.8" type="github">
  <diagram name="Page-1" id="dHfpbO5rQPStz8E7gkM7">
    <mxGraphModel dx="1034" dy="462" grid="1" gridSize="10" guides="1" tooltips="1" connect="1" arrows="1" fold="1" page="1" pageScale="1" pageWidth="850" pageHeight="1100" math="0" shadow="0">
      <root>
        <mxCell id="0" />
        <mxCell id="1" parent="0" />
        <mxCell id="SCKcZwcJa6YqW5fdVs9M-1" value="&lt;b&gt;&lt;font style=&quot;font-size: 20px;&quot;&gt;tinjauan pustaka dan&amp;nbsp; umum&amp;nbsp;&lt;/font&gt;&lt;/b&gt;" style="text;html=1;strokeColor=none;fillColor=none;align=center;verticalAlign=middle;whiteSpace=wrap;rounded=0;" parent="1" vertex="1">
          <mxGeometry x="180" y="50" width="430" height="30" as="geometry" />
        </mxCell>
        <mxCell id="SCKcZwcJa6YqW5fdVs9M-2" value="" style="shape=image;verticalLabelPosition=bottom;labelBackgroundColor=default;verticalAlign=top;aspect=fixed;imageAspect=0;image=data:image/png,iVBORw0KGgoAAAANSUhEUgAAA2oAAAMqCAYAAADzc7JnAAAAAXNSR0IArs4c6QAAAARnQU1BAACxjwv8YQUAAAAJcEhZcwAAFiUAABYlAUlSJPAAAONbSURBVHhe7P37qyXVnfj/V39/99LqT6JBbIWR8Y2irYKjgoK2lxAM6rSaIQiK2hqEjBMvrTIEr23iOxC8tKIfJERbRyUS0sYL6JtpR2K80KKDP2iLGPGn9v4H9Hc/a9fruHp11d5V++x9Tu3TzwfUqdprV61atWpV1Vq7qtZZtWugkCRJkiT1xv+vGkuSJEmSesKGmiRJkiT1jA01SZIkSeoZG2qSJEmS1DM21CRJkiSpZ2yoSZIkSVLP2FCTJEmSpJ6xoSZJkiRJPWNDTZIkSZJ6xoaaJEmSJPWMDTVJkiRJ6hkbapIkSZLUMzbUJEmSJKln5qahtmrVqlbD2WefXdx7773Fl19+WS053sMPP1wccMAB1admxF23znw44YQTimuuuab45JNPqiVHGxcv29Pk9ddfr10mHdg21sF2pvnSdnvSIU1L3fes67333qvm+EHdugjrkv5bbrmldZ6mprV/2fY26UVdeDoQT6j7nnW1Sc8oXZavm5ewcS6++OJyGKUpzzhO6o7TunnHbaskSVKTp556qjjiiCOqT3Nk1xzZtm3bLpKcDti5c+euLVu27Fq9evVC+Nq1a8vwNtasWVMuQxzj7NixY2H+GEgXtm7dWq43wknP9u3by+/GIa3psgzr169vvQ2bNm3abdl169aV4ayfeCI8TxPxM2+6bGxPSLeL9aSYN093U96Td3zHkOdLU/qJJ9+3GzduLL9ra7H7d8OGDdW3P8jTW7ev+ZzOw0Be1iEfiYN1pXlXl54u209cbZdP9w/T4zBPxNlm/nw/MtTlLdL8aBO3JElSjvpEWg+aN3OX4rxRkaIimH7XVAlMUXGO+aNxME5eSU8bNmnllYHC0daoeNtIl823JS2kVIDTxkCb9UaFn3lz+fIMTXnJvHVxYNTyNHrSSn6bfYtp799UOk9T3ISn843CvHXrapueJl2WH7V/cjT4Is62y+T5MWrZpvyQJEkahfpDXZ1j3qyod9TOPPPMamro5Zdfrqaa/eEPf6imiuKll16a6NG61OGHH16sXbu2+lQUg4bbouOchiuvvLKaKoqvv/66ePPNN6tPo8XjfgceeGBxxx13VKF7GlS2q6kh8pJHFaflmGOOKW666abqU1E89NBD5SON40x7/+oH7IPwyCOPVFPj5WXlxhtvLF544YXqkyRJ0uLcf//95Xj16tXleF6t6M5Exu0cKu1PP/109Wnoscceq6amZ7/99qum+uODDz6opkb79NNPq6miOPHEE6upPZ188snF5s2bq09Dd911V/lM8LRcfvnl1dTQzTffXE3VW6r9uzdiv9LgD/wg0baxdcMNNxTr16+vPg3927/9W+27jZIkSV1RT3nxxReLP/7xj1XIfFpRDbVnn322mhq6/vrrq6l6zJ83LtK7BJOgsvn2229Xn4piw4YN5d2ovjn66KOrqWZ09JA2tLhbSCW7yVVXXVVub4pOVaZVAScf07uVNBRGNQ5msX819Pjjj++Rt+ndy3EeeOCBPfblFVdc0akTIEmSpFH23Xffamo+rYiGGndOeAwu7rCsWbOm2Lp169je6Hhc68ILL9ytcUGFcZK7QFQwaTRccMEF5Wfu5vGI14MPPlh+Xm7po2nkz7nnnlt9qkee3nbbbbvdNWmD7c0r4KeffvrUKuB5o3fUncFp7l/9IBreNMwpS4G7l20fLWU/Mn9615sfOH72s59VnyRJkvZuc99Qo+tuKotXX311WQmnkfDcc8+NbYhQWT/rrLPKCuOll15ahQ5xt6CLU089tTjooIOK8847r3wEjPTQYBl192mpUHGmwUq6QNrIn1HYHuab9O4Tt5rTCjj7pU1X720cf/zx1dRo096/eXfxDHsrfhS57LLLyun03Ufkd7VH4Q7tn//85+rT0LTfbZQkSZpXc99Q27VrV7Fz585iy5YtZeOAX+WPPfbY8n80jXrkjso6dwRwyimn7HZnoGunE9u2bSvTwV08Goo0ii655JLyf3ctVycJbAONCbaLPFm3bl35qBqdiNAxxyhsD9vAMpOgcfTaa6/tcbeExyAXq+37frPYv/kwC/vss081tXxG5TF3RumkJ+5Wc8cy1aVTEbBvOHZT0363UZIkaR6tiEcfaRhQcaRxEGgYND1yRyWd8LTB8qtf/aqaGpqk0wnu4nE3KRoF3EniLlv6z42XCo2saFB8/PHHZbpouJBXbXC344knntitsdUFeZs/9skdumeeeab6NJlXX321mmo2q/27FMY1opfCP//zP1dTe3rllVd26wiEcpJ+7tKpSODYrXu3kXIrSZK0t1pRnYlQyc3fj6JimaOSnnc0kt8ZmPSxPxpCeY92Tz75ZDU1X6IBPCmWzbtipwE9TXWdosxy/86DWT46eN999+3R++bPf/7zamqoS6cigUZ9egeXYzce15UkSdobraiGGngvKfXZZ59VU0PcaaGSzqOJ6ftGvGOWoqI46eNX//Iv/1JNDXV5zK5vDjvssGrqB10aAnVdsS8Gjy0G7vbl7yIuxf7tM7b/nXfeqT5NF3eGaWhzxzjNW+4ap7p0KpLiDm76iKokSdLebMU11PJK6o9+9KNqaog7bNzpSd81ioF3kVJdO50IeU+EPB42r2ho8R5RoHHT9f/C5V2xTypvWN19993V1A+WYv92ke97GlJ1CG/6rou6RzrzY+C7776rpvbEo6lHHXVU9Wl33BnmfbK6vM3vnHbpVCRwB5eObiZ93FaSJGklWVENNX7Fz++4nHnmmdWnYWWYd1/+4z/+owrZXV2nE5O8X5Z3qJD3Ojiv6JyF/MsfN/z222+rqXpUwPOu2Lti3916663Vp+H/p4vOQsJS7d8u8n1f9yguaGDxf8QWg/J/zz33FGeccUYVMsQxkOb9X/7yl2pqd+QF+VP3HiPfpZ2I5PJHS0lHXcNzXGOUx5fb/nNKGu502MOQNuINHzJ8yPAhw4cMHzJ8yPCheQ9f0XbNkW3bttHV3m7Djh07yu+2bt26a+3atQvhg4rpru3bt5ffgen4Pg3Pbd68eSGOiIf1BtY3qMzuNs+WLVvK74h3/fr1td+Ns3Pnzl3r1q3bbVniIryNTZs27bYsaYy8GaVuvYNGUPXtENtF/OQF36f5wTThxDFufbH/iCtHPqVpIP2x7SyX7tuNGzeW4alZ7t88P5Dnd17eUum2MR9piG1jfWxP3TpQl5667WcdsX/q8pe0xfcRR+wv0kKa2Id15Y1ji2XJ31H7OC/7+fyR96y7bj2pyN903+TSdTEEw4cMHzJ8yPAhw4cMHzJ8aN7Dm1DXyOsmdXWkPhu/lT2RZnLTQGWSymZaEUY0EPIh1TRPDOzYvEHTNDBfWhEeZ1y8owrVuHQzNGm7PfkQ6pYfdwDQoEjnaZN+BtbFfq3L06Xav8wzaX6zHCeLtLHENGF8V2fS/dP04wB5R4Mwb/ixnqZl2OZ03pg/VTdPOjTlWdN2B9I6ap5onDKk6Td8yPAhw4cMHzJ8yPAhw4fmPbxOXb0jHdK6aJ+t4s8gwZIkSZKknlhxnYlIkiRJ0ryzoSZJkiRJPWNDTZIkSZJ6xoaaJEmSJPWMDTVJkiRJ6hkbapIkSZLUMzbUJEmSJKlnbKhJkiRJUs/YUJMkSZKknrGhJkmSJEk9Y0NNkiRJknrGhpokSZIk9YwNNUmSJEnqGRtqkiRJktQzNtQkSZIkqWdsqEmSJElSz9hQkyRJkqSesaEmSZIkST1jQ02SJEmSesaGmiRJkiT1jA01SZIkSeoZG2qSJEmS1DM21CRJkiSpZ2yoSZIkSVLP2FCTJEmSpJ6xoSZJkiRJPWNDTZIkSZJ6xoaaJEmSJPWMDTVJkiRJ6hkbapIkSZLUMzbUJEmSJKlnbKhJkiRJUs/YUJMkSZKknrGhJs3ACy+8UJx99tnlMIkvv/yyePjhh4sjjjiiuPfee6tQLcYnn3xS3HLLLcUBBxxQvP7661XobK3k/Uh+sl0MbKckSZouG2o10srVYkwrnlmjArlq1araYdKGRt+wHXXblw4nnHBCcc011yy6Es8+/8///M/ipZdeqkK6oQL87LPPFjfffHOxY8eOKnS+kad1eR4Dx8g08r7Je++9Vzz22GPFXXfdVXz99ddV6GxNcz/W5RlDenzWfc8wb0Ydq/5oIUnqIn6kvfjii6uQObNLC3bu3Llr8+bNu9auXbuLrJk0e6YVz1LbsGHDQno3btxYbscskDfbtm2rPi2dQWV515o1a8rtW7duXRU6tH379l2bNm3abfsXg+2rW08XkR7GK0Wax1u3bi3DKGdp+JYtW8rwWWB/sI4u5W+x5XVa+zHKFAPbUXd8Um75nnI+y3ycNbYtPX/O87ZIkpYedT6uu6tXr164bs4j76glDjzwwOKqq64qXnzxxSpkMtOKZ6ldeuml1VRR3HnnneV2zMJvfvObamppHX744cX69eurT7s75phjihtuuKEYNB7Kz9x54fFFTdfll19eTRXFvvvuW44pZ+T94IRafr7kkkuW7NHENparvOZOOeWUYtB4KafPOOOMPY5P7uC//PLLxYYNG4o333xzfn89HGDbLrroonJ6cHGd622RJC096nzULf74xz9WIfPJhloNKglr1qypPk1uWvGsJDwWuJyP8+23337VVL1zzz13oTL8hz/8oRxrevLGRSptxD355JPV1PJa7vKaa8o/Gmk8Msjjuw8++ODIfJYkaW/xT//0T9XUfLKh1mBa75X1/f20pcR7Qryv03dWcpdHmu88U77c5qW85o00SZI0xJ21eWZDTVPBnQcqivHSP9Ppo4NMn3766QsdOZx66qnlfGlnCDzulnYkQCM37zyASulTTz1VzscQlVTmn0ZHA1TOoxOQ888/vxynWB/rIW2skx4Eu663zXY2Yb5YLoZA2nhhNtLGwCNjbFOKz2nvhzSKmI/5WZb8rcO8MV/dwDZNy/7771+OSVt0yMO2k3amSXuUr7bb3STdF7EdbcoryKu03NMhCukZZ9R+7IJtJE3XX399p0bauHS3yXfCWI6wXJQpviN+xm3zZrG6HAdp+tmuWIZxbGeqzXYxnZ6jEHkZaanLB8LI6zTd+ZA+EjzunIt8P0bekG4GpiVJPVa9q6YMLx1OI3umFc9SSDsr6CI6S4gX/tNOO/JOGCI/8vBYNx2agM4E1q9fX4alnTCknbQQF/NHJyisc5xIK3GkWB/pj3RHOlLRwQHfMc0Q687nj+0hjam224lIax5OGok3OuMIhPHSLB2jINZFGOsB30WHEwyRn6wjtoWBfZhiXYSn2x77oU2+p2IdeRkgLfEd+4J1kK54EZh1M0QZijxss90hlk3XzbZGfBFHqJs/MD95EHkV6ScsXW/X/ThKpIe4SCvb2LWjjXHpbpPvrDPKLUOK5Vk2zYfIA+Joa5JlwPzjygN5nh4HfOb7WDYND223q+kcxbyjzi8sQ/xR1sjjSEe+j2O9EV53ziWNzBfbw/aSHsYMEd61/EjSvOFcl56n54kNtQbsUHbsYk0rnqUQFZqu6Y0LfioqEoxTkR95xTcqfWl4pCc/uCKc9UZlk0pZTI8S6Ro1UImpE5XVVFTeWK5N2rtsZ10ekoa69LH9dXHwOV8foiKZVxj5TDiVzVRUAqOCCvKbsLr4R4ll0goi64t8zNMU+UCaA+sjLV23Ow8nDsKaKqtN8TA/6U3zAzF/us+67MdxIv6o1DNEg6SNSdJdl++B7xlS0fBL40LdvKPE+klbW13LQ6SJfRHbxTiOj/RHiC7bFT9s5PsnjhnCU+wXwvMyEcdjvj0sn68z8itPH3ESzjal+y7WyTlJklayuvPovPDRRy3aoDKz0AHHpIhjUPkoDj744CpkvBNPPHHh2WN6bezyHPLggKWWszAMKlNlr4OkgR4feYwofVSKR4Yeeuih4rLLLqtChnivinTgr3/9azkeZZLtBOvnMarTTjut7JEzt88++5TxHn/88VXIaPE+WNrTJw477LBy/O2335ZjkA+DCmY5nb5HRn4vZr/fd999C4+QXX311WXeDCrDjY/wRS+AoAdE0tJ1u1NsF3nKfudxtC5IO8uk+QF6Y8QzzzxTjnPj9mNb5BV4NJNHNPPH+ppMku66fB/l0EMPLcdHH310OV5Kk5aHtJdbxk8//XQ5TbmPxw27bFf0aMq5gXNTiHNU/r/8nn/++XKcd3b04x//uJraXZdzbsTJfkz33SGHHFKOv/nmm3IsSeofG2patLfeeqscEO993HPPPeXntqgoffXVV2VFhvcqeJ8ibxTNUnTP/9prr5UVvbfffru44IILqm+L4sMPPyzHdB0f74TEEO+0vfPOO+V4lEm289133y2OPPLIcpmmBgXfEW9U/nlXhXkn/afbKSq/TcZV2kf53e9+V6Y5GsuUIf6tRReTbje9Sh577LHlu11pRbotygcN97ws3HjjjQvf59rsx7aOO+644qOPPior610aa5Okuyt6TmV/MqZhGu/DLYVpHQfEEw2hN954oxzPcrv4waJONPhy0zjnSpL6z4aapoJfnam0UOHjbsGGDRuqb9qLF/XPOuus8lfgO+64o/pm6VBpv+mmm8ppfk3PX87funXrQsMiH9r+37yu2xmVOCrYVA5HiY4D/vKXvxQ///nPyzuHi0WlNe7gpJ0Z4OOPPy4bttxpWU5dt5s0gwpu27tRuY0bN9aWgxhyXfZjGzSSKXPRWKPh2SberumeBA0ZOqo46aSTivfff7949NFHq2+WxjSOg7ofIWa1XZwz8eqrr5bj8Pnnn5fjn/70p+U4NY1zriSp32yoadGo7NIr3q9//euy4kgjZNz/K8tRwaQxwEDlnzsr8WjOUjv55JOrqaL44IMPqqmh//mf/6mmJjPJdvI4Inf6wB29uoYFFUgqbfxz5ueee658fJBf/qeFOGnc/PKXvywbmuBuII3Z5fxnkpNu9znnnFM+ZkkDhzunxNMV/1y6izb7sau0sQbiHddY65rurtgu7hxyh5l/vM3drUnuWk5iFsdBPOo4y+3inElDizt/NDLBcXbrrbeW+za/0zyNc64kqf9sqGkiUZmg8sIdAioZi6kQUfGg8RKPLC2n+BUbUUmLd8rY1qaGEg2XcSbdTiqEW7ZsKafrHnN79tlny8fWuDs3i0oxcd59993lNBVHHpfjfSbuME6zQdjVYrabyi/llsYm7411aayxD1lvU6OoqdvzcftxEjTWeAwu7qiMaqxNmu4uKCc0gGkkLebR2C7ifDTN4yDKA3fPMOvtuv3228tji7t0HF9Mc9c9v1M/rXOuJKn/bKg14G7HOFQOooLQpE0884aKwmeffVZO/+1vfyvHcZclfPrpp9XUUFMlmMd3iI8KEO+WpPOlDSZ0qUg3STvJqMM6+BUbVGqjIsTjfzw+RTqpYFPRjfSQfir66Z24OovdTn41p+ML4rjiiit2my/u1MR+Ad+n8zTF2wbbyzpoEMR7ZUx3rSguJg11FrvdVLrZr1Tub7vttiq0WTz6eeWVV5ZjGkU00KP8M6YxPuruxqj9OM64bUkba3WNrsWku624Y/fFF1+UY+Tnhy7bPA5lM9I9aXnI08exSpkgP6NRNsvtYjnOITTSOK44vjjO6hqFiz3ndtF0jTN8yPAhw4cMH1qu8Cb5uXLuDC4IykQXzwx0YVyHbp5jnrzL59Amnj4ZVEpGbhNdO7Mdq1evXvj/Quk20s0zXUOvXbt2oRv6QWOnjHdH1XV+hDMP3UYzP4gzwgkbVJ53Sw/zxjqju2mWiXjbYF7SE+tJl2XbiJ/wiDvtVhvMH+nMB9KaijSyvrRL7LbbyTJ8R1jefXa6DZHG6Do84mBg+dieWA/YjpiX5VKxf5g/TzcDaY6BZSknTeW/DsvFuknjOGk+5GlC1+2O/E+3O80Ptj9dR1N5RawjHwiPONL0t9mPo6TnHJZJy2/g+Ix5Yj7C0m3qmu66fA+xbCryLMoL+U9Y5D2f03ysw/oinSxXt362P8pTfN+lPCDm5fvIT/KZz2l+oMt2MU1Yfvyn58s4nyHSTXzEEQPzkJ50X3c556b5yPepWCfprytLaXlLj3HDhwwfMnzI8KHlCh8lvS7Unev6zoZaJnZmPuS4AHJBzC/EoS4Ohj7iQl+X1qaBC3sqGm98R2WAA4GBMPInrYQyTRjzUokKaTgVizgAmSaeaOhGGtKB9I8Tlc5xA/ORrrp9CsKpBMX2kua00o+6dUUa22xneiJKB8Lr9hXrA+nmM/HENlDRi3n43LSvR60TUfFsGtimUSfApvgZmvbfuDSFxWw32u4v4s4xX3yfrh+j0l+XntiPdfJ5Y0iXadrGGFKTpjsX36WIJ/KUdcTxEfupLh9Tdftj1JA3QGI9o8pDiDhIY1N+hLbbFXGmA/ldt12EgXLGevPv04E4Qptz7qj9WBeexg+2l7gY0rwwfMjwIcOHDB9arvA6Tee6OO/Oi1X8GSRckhrxeBmPk8XjndFleXjkkUfK92l4VEt7D96lwrxeRvqSfh5TvPbaa4tf/OIX5Wceh04f3+SxRt5LGzTGysewJUl7BxtqkkbivSx6e4z/21SHefjfZDbU9i7R6cWostFnfWmo8X7addddN/KdT+bh+LKhJkl7DzsTkTTST37yk7Lji1GdE9BIu/TSS6tP2ptcdNFF1ZQmwUvxdMv/j3/8owrZE52b7L///jbSJGkv4x01SSPxf6noAW/16tVlj4X8P7BAL5r0hnf99deX32nlorFAj6cnnnhieWeH3g8vu+yy8n+KLVU3/NPEXWD+Fxm2bdu2bP+0nX+qf95555XT3J3MG77vvvtu8c033xRPPPHEXOazJGlyNtQkjcU7ao8//nj5y3+gUsl7aZdffrm/9O8F6OKYLvwpA9Fo539/zWPjgccI07KMdevW7fE/y5YKefvb3/62/NGD99BAHnN8nX/++f4IIkl7KRtqkiRJktQzvqMmSZIkST1jQ02SJEmSesaGmiRJkiT1jA01SZIkSeoZG2qSJEmS1DM21CRJkiSpZ2yoSZIkSVLP2FCTJEmSpJ6xoSZJkiRJPWNDTZIkSZJ6xoaaJEmSJPWMDTVJkiRJ6hkbapIkSZLUMzbUJEmSJKlnbKhJkiRJUs/YUJMkSZKknrGhJkmSJEk9Y0NNkiRJknrGhpokSZIk9YwNNUmSJEnqGRtqkiRJktQzNtQkSZIkqWdsqEmSJElSz9hQkyRJkqSesaEmSZIkST1jQ02SJEmSesaGmiRJkiT1jA01SZIkSeoZG2qSJEmS1DM21NQLr7/+enHNNdcUq1atqkL65amnnirOPvvs4t57761CJjOteOYN23zAAQeU+1mSJEnj2VCr8eWXXxYPP/xwccQRR1Qh3bA8jQ4qpjQ8GPOZ8D6i8nzLLbcspJfhk08+qb4dj3yK5RiolHfxwgsvFPfff3/x0EMPVSH9QT6w7xheeumlKrS7acUzLen+ajtIkiTNg/fee6+4+OKLF+ow1FXn8kfyXVqwc+fOXZs3b961du3aXWTNJNlDHKtXry6HdevW7RbXmjVryu/7atOmTQtp3bBhQxU62pYtW3bbvh07dlTfdBfx9FHkDePFmFY8i7Ft27ayfLLvUpTXPG2U10izJElS31HPod5CvZS6DWM+M6xfv76aaz54Ry1x4IEHFldddVXx4osvViHd3XbbbcVNN91UfPTRR2U8b731VjEoMMWgYlwMGjHl93118sknV1NFeXerzR3Axx9/vJoqirPOOqs4/PDDq0/qM8oovzSNwzFxww03FIMTXRUiSZLUX7/85S+LLVu2FB9//HFZF2e8efPm8runn366fA1lXthQq0HldND6rj51R8WWOMIpp5xSPPjgg+V0Hx/vS1Ehj21/7LHHynETHpmk8Ecl/rDDDivH6r+0Ud7GGWecUU1JkiT1E488XnHFFXv8GM2NmA0bNpTT6U2GvrOh1mDS99OiQZZrc/eiL+64445yfM8994y8q8Z7Zb/61a+qT5oX/HDA0AU/PkiSJPXZMcccUzbK6lx66aXV1PywobbE1q5dW03115lnnlk+qvn1118Xzz77bBW6OzrHePnll4sLL7ywCqnHfDRSJ+1YJV4CjSF9EZTp6MiEMfFGg5gOTdLlAncB0/C6F0vzF1CJ6913362+ba9LPG3ziY5XCGcesD0nnHBC+Zkx65yVUXnXlN9g22JfEQcm3T/zkE+SJKm/jj/++Gqq/2yoLREqmLjooovKcZ/x2CbvMOE3v/lNOc799re/LedJH/HMUXmmYcq7ebyzt2vXrnIZHv/82c9+Vs01Gs8Y02jctGlTGU/c2aEC/8gjj5SNReLlNjbvA37zzTfl9zyTvH379nI6xZ2knTt3Nr5zRQX+9NNPLxsAzMfAY38809xFl3ja5hONjz/84Q8Lj8/yjDV3PylTbM/bb79dXHDBBeV3s0Dekbb169dXIT8gv7du3Vp9+gENJB6hvfHGG8vtC5Psn3nJJ0mS1D+ff/55OT7nnHPK8VwYVHZUY1Chm2pPd/ScR68zg0poFdI/9JLDdoN0sv0Mee+A8d2gwlx+jrzKezKkB8268Ig3l4cPKvJlr5mMc6xz48aN1aehNP2haV3Rk2GaNrYreuvMNW1jna7xdMmnUfslejWqy6822m4j3zfNF2nLRdzso1TT/HXr6Es+SZKk+UNdxF4ftQfuBPC+F3d9Rt2B6hPSGS9d3nrrreU4cIeE78b18HjooYeW46OPProcd8FdEO7CcOeF543rcMckfYSNuzGL6XWSxzx53POyyy6rQn7QpTONrvF0yae0/MRjniHeq/z+++/L8UpjPkmSpEnwhM/f//734oEHHqhC5oMNtSVw7bXXlo9ode3AYbn9x3/8RznmUbN4tyganfHdKOeeey63Ocoxy9H44v2gcXi36JJLLik7Zmlq2F533XVlY+jYY48t548GW1NnLm386U9/KseHHHJIOZ5U13gmzae9jfkkSZK6os7Aj+d//vOf5+aGSbChNmMPP/xw+Z7SPPaax92puKsWPUG+8sorxYknntj6zhUHxy233FKcdNJJxfvvv188+uij1TfNeCcNvAvF8nWorNOAXLduXXlnjQYbHVTEu4CTeOmll6qpxZkknknyaW9kPkmSpC64YUI9dt5umMCG2gzxiz93ehZzl2e5RVemND64q8ZjkPmjkE3Y9iOPPLJ45513ijfffLO48847Gx9jTDEfjTQ6feDgakJjkUcj+YfiNNhII51NNDXu+mrSfNrbmE+SJKkLnro6//zz93gNYl7YUJsRGmnPP//8XDfSwK8PNILAbWPudrX9ReLuu+8uH08c9QhjE54hptFFL4kcZDnuqgTSQ4ONu3+j/qXAOLGdTz75ZDmeVNd4FpNPexPzSZIktUX9kR9057WRBhtqDT7++ONqqhmPNTLkaKTdd999tS8screnruHRB9FtaY73wcCjhtdff305XefTTz+tpoboOh9ffPFFOUb+aGLT3S8q4jS+aBjyaCN5muKuSrw3F+r+kWE0mtJ5uTPz6quvVp9+EJ1/5J2UpL799ttqqlnXeBaTT8vh5JNPLsd5HtYdC+N02T/LkU9Nx7jhQ4YPGT5k+JDhQ4YPGT406/Bc1LXr/vk19Yy6/6PbS3T9qN3RbTdZw5B37R3oZjzmSbscZ37C6FZ+UAndY+A7uhnvG7ozp8tSupWPbvdTdGnOkGNelmG7+D5dlvgI53u6VN+wYcPCOgjnc3S1vnXr1jKMIe02PfKTIe2Wnbwkntg/afqZDizDsmka6NY/D49l+D4NZ98yji7dI7wuj1Jd4umST2l+pPlE+iPu/N8WtJGWZ8pumoc5vou0kU7Sxv5IjxvC2achyn56rIBlCU+3vWn/LHU+pXmSptvwIcOHDB8yfMjwIcOHDB+adXiO+gDzRN07Hajj8F1aN+gzG2qZKAD5kIsKH0NUatPGxqgh5u+LqBTnQ4qKbzSKQt0yDBwIYDuZJox8igYqFWTCoqIc86RDxJGHM3BwUkHPlyMsb0CRhjhgo4IPxhysbFO+P/guKvOM2a8Rxja03X9t41lsPhFnHs7QVt2yDLEP6rAtsW3MFyc88pj8zk+Akfb8xNpl/yx1PrE+1sMQaYDhQ4YPGT5k+JDhQ4YPGT406/BU1AlGDdQv5sUq/gwSLUkzQ4+cdPYyaKjNZa9LkiRJS8131CQtmaOOOqqakiRJ0ig21CQtiXXr1tlboyRJUks++ihp6o444ohy/Pjjj5d30fj/Z6+99pr/90ySJKkl76hJmrqzzjqr/HcOp556avlPy22kSZIkdeMdNUmSJEnqGe+oSZIkSVLP2FCTJEmSpJ6xoSZJkiRJPWNDTZIkSZJ6xoaaJEmSJPWMDTVJkiRJ6hkbapIkSZLUMzbUJEmSJKlnbKhJkiRJUs/YUJMkSZKknrGhJkmSJEk9Y0NNkiRJknrGhpokSZIk9YwNNUmSJEnqGRtqkiRJktQzNtQkSZIkqWdsqEmSJElSz9hQkyRJkqSesaEmSZIkST1jQ02SJEmSesaGmiRJkiT1jA01SZIkSeoZG2qSJEmS1DM21CRJkiSpZ2yoSZIkSVLP2FCTJEmSpJ6xoSZJkiRJPWNDTZIkSZJ6xoaapJE++eST4pZbbikOOOCA4vXXX69CZ+vLL78sHn744eKII44o7r333ip0ZSA/2S4GtlOSJKmODbUaaSVxUlQuWX7VqlVlBZeKbl8rZaSVdNYNUTFvmmelVaL7hvyvy/cYKGPXXHPNzBpQ7733XvHYY48Vd911V/H1119XobNFQ+bZZ58tbr755mLHjh1V6GTq8ozh7LPPruZonmfejDqO0+2VJGmlo85N/Yg6ONdB6kvU7efOLi3YuXPnrs2bN+9au3btLrJm0uxZt25dOWzatGnXhg0bdq1evbqMa/369dUc/cO2k77Y7q1bt1bf/IB54nu2a1CJrr7RrFGW8n3D/kjDt2zZUobPAuWZdWzbtq0KGY9jqcv8udg2xotBGiKP2A7yLbdx48by+zVr1sw0H5cCx2ZsL9tVt72SJK1UXPeoe3M9pA6R1m+pm8wTG2o10gZJV1Ty8ore9u3bF+Lrc+OGBsCo7Wa7KPiLqXxrMmmZzPM/bazNat9M0lCj0bOY9EyroYb48aUuLvKW7zmhr4RGDXke5UGSpL0NP1JS907RQOO6SN1knvjoY40DDzywGOzI6lM3Rx11VHHxxRdXn4aOOeaYYlDRLae///77ctxH++67bzW1p6eeeqq8hfzaa68Vp5xyShWqpUKZbHL55ZdXU0Xx5JNPVlPLi8cLFvvY4jQ15R+PRvBY4AknnFA8+OCDI/NZkiT137/+67+Wde/UVVddVY6/+uqrcjwvbKg1mPT9tLxgBCqEa9eubfy+z9JG2jymf6VLGxe837XceK+N98v6Lm+kSZKk+VdXV41+IjZs2FCO54UNtSVAQ4e7C48++mgVMj/ooOC+++4rPvroo9aNNDq24K5i2pEBlfc65A0V5Zg3H/IOEtJOEfLv0g41XnjhhbJxSTj4LtbDuC49zEP8ER+N9abOUrhjlKabadaZYh1pb4k0oiJfiJttn7b999+/HHNCIn62hyEaJaw73aY229EkzSsGPrPs6aefvtDxyKmnnrrwXSrf7+yrOImOku9zhkmwb0jT9ddf36mRNi7d7OPoiIi0sh6mKQORr4SxHGG5KCPx8jPjtnmzWKyD8kp6Y/tIS36s5Olnu2IZxnXlp812MZ2WWUReRlrq8oEw8jpNdz6k54Y2ZT7fj5E3pJuBaUnS/LjtttvKGyb//u//XoXMieoRSGXinZzF4PnYeLF/Hl5ezN9tIe28u9PlvZ38PTbGfGbInxeODhwib/ie+Qhj3al4tpj9kuKdv1gm1sm7dumLo6SJ5Xg/KfZr/oxybHusl22OOPL3muLdqXgXkTQQH2GRBrYlto+B9JOXLBtlgqHLO4uxTKwjRN4wRJpifYSxzawz1hvb3mY7QuRbGs78hBFvvm/r5g/MT9pi2yP9eVmL9OX5TxqJv67DmyaRHuKKchbb3da4dDMQf1qGGWLdTLPOtGymWJ5l03yIPCCOtsjzuvjHYR2sP/ZlxENYpIc8T8s1n/k+lk3DQ9vtaiqzzBvlks85liH+KGvkcaQj38ex3lFlnjSm+5HtJT2MGSK8a/mRJC09rkecwzlv53WVeWBDrUHs1EmllaUY6ioZfZKmOba/S5qj4h4VnlBXKYt5qWSl0kpWKtKWxhEirel6qWxFPHmFKipm6QEblec0jqZ1RkUtFdvIOBUVzzwf+Uw4ldO2mJ8h3R6Wj/Tk64j08300LtjmmO6yHXkek7+ENVVW6/YJmJ/1RoU9xPzpeuvSwjZSWe4q4o9KPUOXE/Yk6U7LNvmQLsv3DKlo+KVxoW7eUWK/d1mGvGB+tifVtB8jfvZFbBfjKO8cY6HLdnFBJSzfP3G+IDzFfiE8LxNxfOXbw/L5OmN/5ekjTsLZpnTfxTo5Z0iS+ivO7+nQVG/pKx99nBE63BjkbzGoeCx0JPLQQw/t9thZnx1++OHlmDTziFIb/L+tQQVtj85GTj755HL80ksvLTy69Morr5TjvPOGM888s5panDReHplK8TgT0o5dSPegElccfPDBVUgz5h1U3qpPo0U6Lr300nIcDjvssHL87bffluMueBQ1HiG7+uqry/QMKsONj/CdeOKJC/uTx1djust2pOKxwcEJcI+8HYe0s0y+388444xy/Mwzz5TjHOWGdZ522mnFnXfeWYV2xzaDRzN5RDN/rK/JJOm+6KKLqqnh+SBfNnfooYeW46OPProcL6V99tmnLP/HH398FdIO+yK2i/HTTz9dTg8aVguPG3bZrujQiDKbPmodZTb/X37PP/98Od5vv/3Kcfjxj39cTe2uS5mPONmP6b475JBDyvE333xTjiVJ/XTDDTcUO3fuLAaNs4Xr/yWXXLLb4/B9Z0Ntxs4999zixRdfXHh58ZFHHinHfUeln4KNto21d955p6ygxbsfMfCeUvjwww/LcV6xCuMqs7NChZOegKgQ8n4KDerLLrus+nZ3b731Vjkg3te55557ys9L4Xe/+12ZVn4IYCAt0ZtRF5NsB71KHnvsseW7XZN0LPP222+X5SkvIzfeeOPC97l33323OPLII8t907VhmDvuuOPK9y2prHdprE2S7q44V7A/GdMwjffhlgJ5S5mKRjDvbJHX/LjSBfFEQ+iNN94ox7PcLn6wqNPUg+1yH7uSpKVFvZLr2ZtvvrlwfepLD9lt2FBbIrfffnv5izUNmXlBwU4ba1Su4o5YEw6CaEDUDXG3jV/M8fe//323OGkkYf369eV4KUWHB2eddVbZkLzjjjuqb/bErzHkBxV17vJEQ3zedN0OyjCo4La9G5XbuHFjbdmIIReVccoglfzF4qTNjyfRWKPh2SberumeBMcCHVWcdNJJxfvvv7/kHRBFBxp/+ctfip///OcLTwN0Ufdjy6y2izKLV199tRyHzz//vBz/9Kc/LceplXLsSpLa49rED92IuuY8sKG2RCggNE6iojsv0sYadw14/GxUY415xjXmwC/vxEtFmZ54WIaByjB5dNddd1VzLg0q6twWZ/j444/LO1TxiFOORgp3CX/961+XFX7yqOkOYZ9Nsh3nnHNO+Zgl++2CCy5ota9zL7/8cjXVDo+J8q8hwCMLkzYQU2ljDcQ7rrHWNd1dsV3cOeTONL/8cXdrkruWk2A/0nj5zW9+Uzz33HPlHXXugC1GPOo4y+2izNLQ4s4fjUxwAb711lvLfZvfaV4px64kqbu4WRA9ZM8DG2pLjIrBvCHN27dvLxtQoxprNL5Aw6sOFan0Vwzi5c4ZYQcddFA5gEp5xLVUqMDRSItHv5pQ6eTODpXDxVZkl9NitoPKL8txd3hcwz1HHlOGmhpFTd2eU7GPHwy6vFs2Co01HoOLOyqjGmuTpruLu+++u2wA00iquys1C9G4efbZZ8vt4y7yYhtRUR64e4ZZbxdPK9Ao4y4dj6MyzV1xGmKplXLsSpIW5/zzz6+m+s+GWgPuqoxDJScqOuNQSeAxv0neJVoq3333XTW1JypvNKCisUYlLK8sR4cZVIZohMX3VNzIpz/96U+7NcBoHFHppkIVj49REa6rKMavIPmjkrxL02ZfjUI6qUjyjk4adzw+Ffjub3/7Wzmd3zb/9NNPq6mhNJ5pmHZ8i90OKt08FkdZaGqYp+LF3SuvvLIc0yjiPcBYP2PKw6i7G5QpOjBhX11xxRWd8mTUvGxL2lira3QtJt1txR27L774ohwj3z/TLAeU+88++6ycjjuW8RmsK11f3brz9BEnZYL8jEbZLLeL5fixgEYajW7OIRzHdY3C5Th2m64Rhg8ZPmT4kOFDhg91DW+D5fgxb1od1y2JwYVNmeiqmmFLQzeeaRfYadfVg4ZMOdAlKF1Kg+/XrFnT6y5B6X46/f9OdKmdS7vfjoEurNNutKNL63wgT9L5Io+Jj7yKgTwiv9J5Q3QVHsuQXuZPwyPdhMe607jYBvYF4aQ1kL40buIcVDYX4mBeug6PdDOwfuZlmcg74mY59j1DzJvnZ8zPetKuv5uwnogrTfcosS/YtiiLoet2RP6k25FuH8ul2xHxECfpIP5AWCyXDoRHHIxjvxJXKvYf89eVk1x6rLJMnhdIy0vMR1i6TV3TPWrfxrKpyLM4f5D/hEXe8znNxyZpuU3PTYE0sW3EG//vjP0ay7C/GEh/bDPTxBti3jQ/WRef0/xAl+2KtLOP0zjS8hppRqSb+IgjBuYhPem+7lLmWXdsO9+nYp2kv64shbTcpfvB8CHDhwwfMnzI8KGu4ak413NOT6/jnLsJa1Nv6BMbapkoAPmQY8ezw/MKBRWcqIAwcLEnbNQFfblRYUm3NR3SA6Hu+xiII1BJikoOAxWdfPvTilDTQOUwxcEVlWDyPSpshLGO9HNdXE3bCeImTj6TrthuptmfHOwhKrnMG9vGQFicBJrWlZ5k8vA6TfMzpHmeazP/YrYDdfkc60jzk/KfY774nvUxTxxHo/KoLj2ko0k+bwzpMk3bGENq0nTn4rsU8USeso5oFLMOwuryMTVuO/KB9KdiPel2cUwRRrpiOxFxxIUvXy7VdrsiznRgm2LZdIj9Rzljvfn36UAcoU2ZH7Uf68LT+FNsN3EypHli+JDhQ4YPGT5k+FDX8BThnN/T8zTXDK49Tcv02Sr+DDZCWnI8Msb/O6IrbR67/OCDD6pvhv9fjEcoeYRpHt/rk0bhXSrM6+m3L+nnMcVrr722+MUvflF+5nHl9PFNHmvkPDJojC35e6+SJC2WDTUtC97zoTE2qvMO5vnRj35kQ00rTnR6Ef/Ta970paHG+2nXXXfdyM5BmIcffGyoSZLmjZ2JaMnR4QD/w4hfuZvwSzn/G2muXviUOrjooouqKU2Cl8Lplv8f//hHFbInzjV0w2wjTZI0j7yjpiVHr2vcTaD3vjVr1pRd9Ke95vG4Enca6MltWv9vSVouNBbo3ZT/o8idHXo/vOyyy8r/KbZU3fBPEz148r/IsG3btoUeWZcaPb6ed9555TTnk7zh++677xbffPNN8cQTT8xlPkuSZENNy4I7Zo899ljxzDPPlN15h3Xr1hU//elPiwsvvNDKlVYEfpjgfUzu/qxevbp8lJf//TWP5ZvHCNmOFMds/j/Llgp5+9vf/rb8FwBxh5485v+o8X9yfGxakjTPbKhJkiRJUs/4jpokSZIk9YwNNUmSJEnqGRtqkiRJktQzNtQkSZIkqWdsqEmSJElSz9hQkyRJkqSesaEmSZIkST1jQ02SJEmSesaGmiRJkiT1jA01SZIkSeoZG2qSJEmS1DM21CRJkiSpZ2yoSZIkSVLP2FCTJEmSpJ6xoSZJkiRJPWNDTZIkSZJ6xoaaJEmSJPWMDTVJkiRJ6hkbapIkSZLUMzbUJEmSJKlnbKhJkiRJUs/YUJMkSZKknrGhJkmSJEk9Y0NNkiRJknrGhpokSZIk9YwNNUmSJEnqGRtqkiRJktQzNtQkSZIkqWdsqEmSJElSz9hQkyRJkqSemZuG2qpVq1oNZ599dnHvvfcWX375ZbXkeA8//HBxwAEHVJ+aEXfdOvPhhBNOKK655prik08+qZYcbVy8bM/rr79e+106jNI27fnAcqj7Lh1IX9M6nnrqqTKOFNtUN2+qzTYzzygXX3xxOYxTF3c6pOup+57tGeW9994r52M8SlO+UJ5yTfkzKk/q5k+HNtvZtJ+jrIzCvqhblgF14emw3OlrUjd/PrD+W265ZbfzQtM+rBvqlm+j7fmtqezFkJfxunkY0LQPxg2xj+q+GzekZWPc+tN5m/ZBpKVJ3TLpkGrK21HlddSQ7ou2yx9xxBFl+a47H6falMk0/+q0Pe82qVtnOoxb/yjTvN7Htb5Letquv259LFd3DalL66jySxlg/xBfvgzp4xzDetruw75c36RxaBtwLqQszY1dc2Tbtm27SHI6YOfOnbu2bNmya/Xq1Qvha9euLcPbWLNmTbkMcYyzY8eOhfljIF3YunVrud4IJz3bt28vvxuHtKbLMqxfv36PbSCN6TwMsf5R1q1bV8ZPGsOmTZt2i4fPIbaF5QLbkuZxvgzIH9KdztOUD2zbhg0byu/TdOXarLcOaYn5mR6H9aTrYGhKF3lOmkh/m3LGfMTHeBziy/cNQ1P53Lx5c/k94zZpmcZ21h0HDKPyme/yMk7c+TJ9T18T0pIuywCWz/dnvi/z7/Pjjs/xHWkirK0u5zdEWY2B5ZvyIMoe6Uv30TTON6yTbU2XSbG/2aaYJz8P8n2+P+vOqSHOW2x/2/xlvjyN6XalWC95yfzMk+Yp36X7mCHfnsijunUQV17eY3niZj+l6WxzHuqybSnSEvM3lZs26o6npvNAF12Oh6Z8JU/TssfQJk/RZf2sKy/DfK4rw6SV7xiayi/xxfpJO2mIuOq2KT0eR4lzRps8YD2Uo1hHDE350fX6Jo2S1k/nxVw11JBfzFIc6Ol3bU4anPhj/rYnpfwkExdEpBcpBk6KbY2KN5XO0zbNdRWUfH35RZhtyeMflf+BdKfzMHDyrzvJMm+bbWiz3tzGjRsX5s+3rUmX9TBv0z5Ksd0RX1M+1EnTEcOoMtHFNLaTPM0b5eR5E+bPj1HirtP39DUZle6ozMSQpzn9Ll8vZSatMLYtR5Oc30hXLMPQdOywfuKkApVbyvMNlVK+ayoD6fJ184A4qOA2fT9KmzSCssW8bGedNmmNclC3T8YtHxXeGOriyLXdttQk590mk6x/lGlf7/Pzxbjtncb6Ry3LvE1pSNPK+aOpMUcZi8ZhmzQyfxpvftw3iWXSoen44ztpsfJz4LxYUe+onXnmmdXU0Msvv1xNNfvDH/5QTRXFSy+91Pmxotzhhx9eDE5y1aeiGFyUFx3nNPCow4EHHlh9aodtefHFF6tP3Qwu1sXgpF19Koqvv/565KMYs/DQQw9VU0XxyCOPVFNL79lnn62mhvnwyiuvVJ9GG1wkyyH1k5/8pBflKfz85z+vpobI86bHjtkH+TE6a31K36WXXlpNDf31r3+tpsbj2B00fqpPw3L04YcfVp+aTfv8FnjE6aSTTioGlcLiqquuqkJ/sBTnmzifHHPMMcWgEVxOT4K0XnHFFeW6TznllCp0uni067//+7/LdbCdXfHIGI98kad33HFHFdrNhRdeWE0Nvfrqq9XUdPXlvFtn2sdD/mjgM888U03Vm3T9HGcpluUx6LYoO5dcckn1qSgefPDB8ripQxmjnKbX71FW8vVNKwfXrJtvvrn6NF9WdGci4040nBCefvrp6tPQY489Vk1Nz3777VdN7T3Y5tdee636NPT222/XPos+C1S+uGgEGswvvPBC9Wlp/eY3v6mmhu67775qarwnnniiWLNmTfVpeCGkwt7lHcxZ2nfffXerJDddqKkonHXWWZ0r74vV5/S988471VQ7Xc8jszq/cWzdeOONxZtvvtlY2VsKH3/8cTVVFKeddlo11Q2VXRpQb7311kz2PccpDUrSR+V4Up9++mk1VRQnnnhiNdXNUpTtPp13c0txveca12Qx6z/55JOLzZs3V5+G7rrrrjK/27jsssuqqaFx755RVtqW15V8fdPKQHnimsU1fh6tqIZa+ssOrr/++mqqHvPnJ7/018BJ0GpPT9ZUEpe6ctoXVOK2bNlSfRoif9teXBbj8ccf32Pfpr9mLpVoAKR3WSkf4166DpSd5557brcfHVj+tttuqz4tv/yOSt2F+sknn9zjjtJS6Wv6jj/++GqqnW+//baaGtpnn32qqXqzOL9xZ4eGDRWs5TyvcVzRCAhUPLvcDePCzTI/+tGPFtWAGoVj/Gc/+1lx6623tu6UoQ5pTc+Z3JG74YYbqk/t5ZXf/fffv5qanr6cd+vM4njIpef53GLXz3ksv3PMD5/jriU0lNNjJb+L1YSnC8aVkb3h+qb5R3nix4rjjjuuCpkvK6Khxi9V9FQUtzX5hWbr1q1jL448lsHjIPkv7pM0JLgIckK84IILys+ceHhcYVaVgHnBPuAxyBSPYHCCn5W4SHBhS3+t49dMyspSuv/++8sGQP6jAeW1LRq8f/zjH6tPQ1zg057flhPpG3Wh5tjgMeRZPVY2Tl/SR2Mwdfnll1dT45HG9Nd4zlnj7mZN+/zGscyvkpTn5Wykse9++ctfVp+6Y3nucrHP88cBp4Vrwemnn15OL6Zccb6ikpHepZpU+kMm16dpPwbUp/NunWkeDyFfdtSPw9NYP/WJ9FzG8pQzjs8m//M//1NNDbX9gYhjfFza9obrm+ZblOHF/Fi23Oa+oUYXm1wUrr766vKkxUmMX2jOPffcao567Lx41Cn/JZ1fBbs49dRTi4MOOqg477zzyl+uSA8n1El+9VyJ7rzzziV9Fp2LRDzqceWVV5bjkFZWZo3to1FARY1fJ9NfDSl/oy6uOcpz/p4Clea+PFY06kJNnv/qV7+qPi2P5Uwf+5lKR/x6TjngTnPbd5X4UePaa68tzy1tfwCa5vmNx+5o2ERDkWO3S9mdJs73xx57bHlcTeKNN94oK7Ysz/WCO17TRtniWkD8vEs0aYWT6wrXksXe9eE8RHmIhhnnYh5LH9fQ76ov59060zweAnGmj/Lzg2RTZXCa68/fH6OcjXr/O3/EelqvYuxN1zfNJ8ooT9DcfvvtVch8mvuG2q5du4qdO3eWFR9OFJw4uJDz/03SX81znBzjkShONOkvgF1fMt62bVuZDu7i0VCkQsVdI/5HiSeaIR6Vyn8J5Fn07777rgqZDi4O/FIeF8z8F/Npv9w+6vGztAHABTq9iLP9bV+6DjT8019j8W//9m8jy/m0jHvMjm1LL9RULuNC/eijj868E5G+po+GBT/i3HPPPWUFmcoc56imCl3gHMSyDFTYaSRxjvrqq69a/QA0zfNb3inTuIrhLHGe5Xybbk8XeQcaXTtlaCN/N3fSCifbybWk7aNqOcpN/JDJ9Yj9xnWSiv60G2lLfd7taprHQ+Qrecr7gpyT2Vf8INlkmuvnWkIZS89nnFOW6v3vsJKub1qZqGNyfad8zrMV8ehjnCTSCyQnrqZHAjgpEp5erPJf1Cd5yZhfhbgIxkmYkxW/rM7yMb95wT7igMkvLv/5n/9ZfZoOLg5p73jctUg/U/GZZuN5VIUnHnUJcaEOXV66DvwylDd46bFu1tpU7PKLLBdyLrIcD5P0dNdFX9NHw4KBBhbnBipzbdZF5ZwfoNIKHWW3zd2ZaZ/fuDuS/4rPsTvtBk5bVHS73oUIvC/25z//ufo0RKcM0zwncDchvztAhbNLZTxQVviRK837tmg85O9EUZmvuyYu1lKfd7uY9vEQP8wycFxwd5sy2WQW9Q3iyu+q8+NTXa+Tbd5F5LwSPwzVDXXnnZV0fdPKw/WJstOmbtB3K6ozEXZIfpDX/arDSTF/FCr/BXDSx01okKQXKOTvpuyt2D95JYkK3zRxccjf/cm7aF+Kl9uplMSjLiEvn2x7118Lia+u0twHeb7TGxiPQ+X5v1z6nr4c+5rHuFPcnRlXZmZxfiMtdQ0cGiXLIb8r0QXL1jWkpvnLPXcH0jthXIu4LkzSSCLvx92BbULlOb0ekQ4eo522vpx36348mOX1vo1ZrZ8ykZfjumtBvCsZ3n333WrqB5RXGp55fFxnaJjmd/H3xuub5gvXJ16JSn9w4PqZavoRom9WVEMNnDxSn332WTU1xIWSkyKPLaQ7kMeTUlzQJq2E/Mu//Es1NTTJL6krFZWk/FfeFHl1xBFHlPuka/5z55KTOhW4dN9yVzO1FC+3//73vy/LWZoOhvyik74r1RYXs/zxqj6o+xWdx6HGvS+6VPqevjpUfvLjhQ6Lmir8szy/1R27bXqdmxXOEynS0XabqHjmDRh+fZ2kIdUk73qcY3/S3uwOO+ywauoHbe9oPvDAA7ulg/Nfft5ZCeddGg/5+1dLcb0fZdbrz8txHRqFacMnf5Q5xb8BSPFoZ93dwr3x+iYtlxXXUMtfnKX75RR32PglKh5dSAd+OUpN+njNBx98UE0NtXnUaW/Cr7z5Y2iBx9GoQKMp/5seA+LOJe9g1O3b/JdC1lMn31ejKsRN31EZ4X881aWDx9nS9HNxbopnFCrw+b8+6GIa21nnF7/4RTU1NK4S0aTv6VtKHC/p3RmOj6a7IrM+v9XdoZl2A6ctfnlPUSk85JBDqk/j5Q2YxTSk6lDhzO+IUrmdtEKeVpiJo22nEKQj39f80pw2sJf7vDsNNB5yS3G9H2Up1k85Tu9k5dj/d999d/VpeMwu5nWMebi+SXXlMz8fEZbfLe6jFdVQ4wTCi7mBE0baSQAnDH4B/o//+I8qZHdcCNMLN3FNckLLX5zOe3la6dp0EJJ3MxzShvUZZ5xRTe2OC1+O/ZS+zJ7LHzWhc4e6C0i+r+oenQWPszQ9O08Zu+OOO6pPu+OimaaRiyZx5dpc3Ign/9cHbU1jO+vkx1D+OFTbi3bf07fU8veUuDuRV/iX6vyWVwxp4NC5yHLmHXlBI+ioo46qQsaLhlSar8RBHk5LXYWTuyuTNNYCDSzSePTRR1ch47Hv80pK2sBe7vPuYnE3jfKc3hFaquOhybTWn///xBzlmPNBU0Ma+Y+j/HuLSfcD29SH6xvHEB22MaTHk+FDe1v4ijZoUc6Nbdu27SLJ6bBjx47yu61bt+4aVB4WwgcnrV3bt28vvwPT8X0antu8efNCHBEP6w2sb3By3W2ewYW4/I54169fX/vdODt37ty1bt263ZYlLsJTbGc6D0OavraIN09r3fpSbDv5kS4zuPhX3w4xD/lMHo1LF+siPrY7FfmQ5musj3hjnwfyhHhYb/5dKt/epvlZb8xDvJSJyBfmH1w8dg0ueuXnFN8RznIs0yTdnhjS+VlXxNOm/ER+dTXpdoJtYF/wfV5m4hjK9ysoL7HOWG/TPut7+nJ156e2x2a+3rpyXhd/lBu2dxrnN5Cv6TxNx1w6T8xHeB32wTTON/nxQNrjWGFIEXccGzHUrTPfXgaWG5WPoS6N+TkRsW/SgfVGvtalNS/bpIe4Y33pfiMe8j9dvi4d+TrSc2B8F3nM+mK+pjJAWqZ13s3Vlfe8fJFv6bETeTKt46FtvuamtX6mCWPfjMuzyK9R6Yt9xnxsF/s6joc8L/O4WH8ca3HeqZOWmxjS+VlPxJMfz3WiXObS+NPvDR/a28LbyMv3vJiblKaZ2zTECY2TQpx8ECewfEg1zRMDOzi/yDUNzJdehMcZFy/rHpc+hrbGrY/vc3XzpQPpyw8Chrq4UpzUuZDniCsudAxcVAhL9yvarLNunnQg7TnCSFdc1BiYJqxufqRxxpDPWzdPDKSb+eu+G4U8Ia8mMcl21pUf8jiQHuJIL8JN25UOdfqevlA3fzo0pbXreusaFU1Datx6yJ9xx0nk4bj58uOvbn+kQz4/6uYbN6TxjFtn7I9x86XlJlc3fzqEuu+mMYQu28A1KT2WYoj8YN7lPO+GuvnbDGxfU1lPtTkeJi0bs1x/0zoD57Rx87AvqSMRf14W2Pc0otIGXEjniyHfh3XzxMD62uRNjnTUXd9II+nPz+WGD+1t4W1wbLQtd32yij+DBEuSJEmSemLFdSYiSZIkSfPOhpokSZIk9YwNNUmSJEnqGRtqkiRJktQzNtQkSZIkqWdsqEmSJElSz9hQkyRJkqSesaEmSZIkST1jQ02SJEmSesaGmiRJkiT1jA01SZIkSeoZG2qSJEmS1DM21CRJkiSpZ2yoSZIkSVLP2FCTJEmSpJ6xoSZJkiRJPWNDTZIkSZJ6xoaaJEmSJPWMDTVJkiRJ6hkbapIkSZLUMzbUJEmSJKlnbKhJkiRJUs/YUJMkSZKknrGhJkmSJEk9Y0NNkiRJknrGhpokSZIk9YwNNUmSJEnqGRtqkiRJktQzNtQkSZIkqWdsqEmSJElSz9hQkyRJkqSesaEmSZIkST1jQ02SJEmSesaGmpbMvffeW6xatap4+OGHq5Dl8/rrrxfXXHNNmR5J6qs+nTclSUvLhlriyy+/LCvvBxxwQHlhZMxnwifBclxcjzjiiCqk/1544YXi7LPPLref4YQTTigrCmzLLbfcUs0135566qni/vvvLx566KEqZDJRgWoayDvy7JNPPqmWGErzt+1Aw7KrceljoGxefPHFZZ5oT+P2VeTfJPtH3Ywqz+wnSZKaUI+lXjZ314tdKu3cuXPX6tWry2HdunW71q5du4vsYVizZk35fVvMu3nz5t3imAebNm0q00raY3u3b9++a8OGDXO1HW2wfdPYJuJZv379QlyRbzt27FgIp0yRj4Ew8jrmReQ9ZS+1ZcuWcvlt27ZVId3k6UuRxog/1p2mSUPkE+eAfP8QvnHjxoW8JS81e+n5iPxfzjLLcc2xK0nqt7he5/WsvrOhVuHin1eeqRxHJZbvuyKuqFD0HZXOqPjUofE2D9vRxbT2zdatWxvj4oRAOOUoylbdSaKpoQa+m7ShhlHpA/s+ynnT/t/bjdo/acOBvNRscSxEfi+3uG5IkvqLelD6o/Q88dHHxA033FAceOCB1aeiOOWUU4oHH3ywnJ7kMTniWrNmTfWp35599tly/H/+z/8px7mrrrqqWLt2bfVJqX333bea2tN1111Xjr/++uvilVdeKafPOOOMctzWySefXE1NZlT6cPjhhxeDCmc5vdjHQfdGHBshjiOtfO+9957HiyT1HK+fUBeL+vy8saFWadqBvH+yGPP0fhruu+++xnfyLrroompKbaWNpM8++6wc84NAF/xgwDBL++23XzWlro455phqSnsLzpFXXHFF9UmS1Ff0NfH73/++OOSQQ6qQ+WJDraWVfjfpwgsvLMdvv/12+aIlvxbnmhoYdKRAgzZ9sT9fnooNHVZE5yQ5Ol3hu4iDaTo2SREnnXPQyQvrJD6maQxHhx2MSQvhxMO4TYcwrCvWz7hu+xerr40h8uaRRx4pp+t+mCCv0041yO98H8b+Zb54UTc60mEZ4q3bB4QRV8xXN/AjSvo5XXeaLoYwaXomkZbTpn3cpnwjLYeUXdLJ51zb+JAfn/kQeZSGBZZNw9O8z4/HOPaYj3yu66Bm0uNzWlh/2mEU6ey6H4jjpJNOKs+VuPHGG8v5GELb7WQ9hMey5CfTUWaZP8pt3XlTktSM8yZPDZ177rlVyByqHoFUg3h3a9L3EOIdpXlAZwikNQbevxj3zk3e2UW818cQHWgQB/kXzwfneRnv/0RnDMwfnTdEvMSVdtzANEPMx7K8A8Y66MQl3geLuOueSY64WJbvmTf2F/G2NeqdmbQjj1F5OSqdi5WmL30HEzy3Hduc5luIZeMdTb6PbUr3Y9p5DvExf7y/E/so4kixTFp+0jIY5SHUrRd17+BNmp4mo/ZP5B/bkecfYtlR5RuR1xHGfLHNqbbxIfKGbSVtDJEveRnnGCOcIcUysY2R9/nxGPnN96wrwtMyTzxdjs8mkU8MXZBm1k9aQdoiL9Ky1nU/RJ6EttvJvknPD8xDnrIsn//f//t/ZVjs23w9kqRmnMPT83Cc27tcb/qg25VuLxQXytjRXUUFZ16kL1wyME0e1G0/FRjmiQpNYP66gyHC8wpHrC/VNG/kJxUakK5Yf3R4ki9DWB4/IjxvEETFKK1kjhIHf7oM6Uorsvk6crG9sziBpOlrGlhv3T6OimS6jyO+PK3RKGB/RiMdUU4IT5EnhMe+DFHRb1t+QDhDqmt6Rsn3D3lF/FHRz9eR4rs8bXXbwjTxpVhPns628SHKcrpvY/sZ0v2KCM81xR/bnzd6Yx9Gowhdj88maXnugrzI1x1xkaeRR8zTZj805cmk5yHKE9g/aVlqWo8kqR7nbM7j6bm0qe7Sdz76OAKPndxzzz3F448/vlsnIysZt4c/+uijYlApKD/TCQaP9hx55JF7PCL02GOPlZ2l5O9PRecXL730UqtHmohjcEBVn9o555xzyjH7JdZ/6KGHluOjjz66HLfFI0opHjPCF198UY67iMeYDjrooOKuu+4qBg2dYlAB22Mdy2VwzC8MgwphMWgslfnPvqrbx3w3qKAWBx98cBXSLN7HO/HEE3d7b4vHDkBZSj3//PPlOH9c8Mc//nE1tThd09MG+RT797zzzivjGFTMy2Om6V21LuWbx+nSRwYp33nZaRsfjyayj5Gev9j+rsdbk4j30ksvLcfhsMMOK8fffvttOcakx+c0UK7Ji3jEO8S5g/345ptvltNosx+aTLqd8WgO+8f3HiVpctdee21x/fXXr4hzqQ21EdjRN91008w7cugbKiW8j0bFZkPVGyAVGSqmaUX+nXfeKeeh4poOp556ajVHUXz44YfVVLO33nqrHEDlksYODeSuqOjQAGFMA5GKVt37PbP04osv7tYYIg19fTaaCiGVTyqoVNxjH/N+TbjzzjuLr776qpyXcJ73vuyyy6pvF4f3duqM66VyOa1bt67cr9u2bSs/U/5paKYNoVzb8k0jgkbxJZdcUr6jFMda3tFR2/j22WefampPo9I7K8t5fH7wwQflmEZufr4KMU/b/dCkD+chSdpb8V4v9Yu+/EC+WDbUGsSO7tpD30pC5ZzKCZVSKi6I7uYDFfxolNQNbRu5dEZAZYa7d6eddtpCA7ErKka8kM/L/u+//37x6KOPVt+oCZX23/3ud9Wn4Z3SVHSMcNZZZ5WNkjvuuKP6ZnHYz3j11VfLcfj888/L8U9/+tNy3EeU67jrTEOJBtMobco3xxt35jZu3FjeuaPRzN1dls21jY+GCfI4Pv744/KYXuofoZb7+Ny5c2fteYohzvVd9kMTz0OStDxuvvnm8l+n5D/KxU2EeDKGYR7YUKvBL6BUvNr+groSUAlpqmxSmfvjH/9YTsejVIFHhKiULAYVXQ6gX//61+UdKRoFk/SQSPp5fI87fdwl4m6QjxC1k1bYyb/AsUBln4HKPf8zbFpd3LKfaWBw0uSHEdAovPXWW8sfANL/T9ZHVOx5tJU7kaeffnrjcdClfNNoptzG3WzGLJs2ErrE99xzz5UNsl/+8pcLd0q5K0q8cUwvlT4cn+njjaO02Q9NPA9J0vLhdQeefsmHeOSfa2KEzQMbahkqprw7szc10sJ//dd/VVN7qnt8j1+ecdttt5XjHJXv9DG6OlRq+OWDylDdOrq4++67y0oz+245Hu2aZ+l+Ov7446upYaOARhqVzVm4/fbby5Mndxz4dYtp7tzRAJkHDzzwQJk/lDsek8sba13KNw2oWD7uZvMOIe6///5y3PV4oYHAcQHyljx+5plnyvcmF3u8dbUcx2f8APCjH/2oHP/nf/5nbYOafOXcjzb7YRTPQ5K0fKg/1A3x5BANuQibBzbUElyo+YfPVL5yXLiptKaoBERFoAl3IeYFFUAqLHXil2QqiCE6EGA5ftWPZckr8uVPf/rTQmOuyd/+9rdynDfoPv3002pqqK5ylXv55ZfLcdoJSB5vm3i6+u6776qppdGm3KXapI/HvMLll19ejtmfVDh5Ry3Nt3g0MUyapyxH44ZGGu9c8fgZ62qq4EYnNfmjkl3yYtpIJ3etwN3l/EeLruU7f+yU4yrVNT7Oaa+99lqZv+Qtecx0UyMtfmFM7xxRDvI8n8RSH5+kO/7J/Jlnnln+iso+St87A9MXXHBBOU8Ytx/qsD7Sv5Tb2XQuMHzI8CHDhwwfWqnhK9bgwq2B6Cp87dq1Zded+cB3aVfTaRfRTNehW9CYh/j7LLZnUJkpu4HeUXUzD9JOOHmTdvONtAv6dGD+vLvyum6m0zyiK3i+Yz3RLfyaNWvKrr5JDwPxEp536Y5YJraB5QiLZfgc646u2xnSdLJ9rLNpHTnmj/UyRBfbXbBdsc66fEu1KXepPH153MSRfp+X08g79gl5x7FAPsb85FFsc4SzLWk5Sfdxmj/RjTnrJ+4YmId0pWUQxBnpiWVIT16GJk1Pk3z/5OlCbAsDeUW8rDNPG2luKt98RxjjSG+Exb7uEh9ILwPzxUBaia+u/MT6YhniYh/n4aSPdURa0nMjIj3sn9iWCEvjJozPhPOZ8HGYL9Zbtw2sL85Z6f5lOpbLh7Tcx7bGdqZh6fpin8f2sC3osp1pmprKYlx/Iv5AWmLZNF2GDxk+ZPiQ4UMrNbyNWJZz6jyxoTYw6gKeDnHRBtNUivJKYKhbnqGvKMAMVL6ogFD5izSzjWmlJUf+pfNToairzEZlJyopISpV6bIMhLFuKqexbD6kSF9UalguKo/RmIyGV8yTDoTVrWPUAd2UJoa2J5C6tMRQZ1y5S41KXzqw76g8ks85wlhXzBfbxTT7Jyq4eZwMrL8pr0Hcsd+bBuJIUdYiPcQTaSaedBvyeBjGpadO3fwx5NIGRDpPm/KNSF+aJ2meh7bxoS5N6cD8LBsoU7EM8UX+MyYtrJt5+JzHxUBam8LbHp9NmtbZNJD+HHlDnsU8dfnbdj+k28M4jse22xnzpANhoSkvA+shfoZYNwwfMnzI8CHDh1ZqeBtxTk3Ps/NgFX8GCZdmjnc/6KVuUBHaq3vT1BCPf/EvMH7xi1+Un3mkMh5VA4/z8VjtoCEx9hFa1ePRR/I0Hht94403ynF45JFHyncCedxUkiT1iw01LZloqG1dho4M1D+8K8S/exhVFpiHRoQNte54z4zeHuN/rtVhnieffNKGmiRJPWRnIlpSq1evLv+3kPZuvAhMt/z/+Mc/qpA90TnD/vvvbyNtQj/5yU/KzmBGdVxBIy06BZIkSf3iHTXNDL1k8ugV3VXzP7G4O8I/Me77/8fS7NHTHv9IGGvXri0uuuiicjq8++67xTfffFM88cQTdnE+If4hNr0c8uMIvRYedthh1TdF8e2335a9E15//fWtejSUJElLz4aaZoa7JvyHeH7VpzLOP+j1kUcFuiz/7W9/WzYYeA8NNCp4Z+r888+3ATEF/FDy+OOPl3cvA8ciecy/YfBupSRJ/WVDTZIkSZJ6xnfUJEmSJKlnbKhJkiRJUs/YUJMkSZKknrGhJkmSJEk9Y0NNkiRJknrGhpokSZIk9YwNNUmSJEnqGRtqkiRJktQzNtQkSZIkqWdsqEmSJElSz9hQkyRJkqSesaEmSZIkST1jQ02SJEmSesaGmiRJkiT1jA01SZIkSeoZG2qSJEmS1DM21CRJkiSpZ2yoSZIkSVLP2FCTJEmSpJ6xoSZJkiRJPWNDTZIkSZJ6xoaaJEmSJPWMDTVJkiRJ6hkbapIkSZLUMzbUJEmSJKlnbKhJkiRJUs/YUJMkSZKknrGhJkmSJEk9Y0NNvfXUU08VJ5xwQrFq1arigAMOKO69997ihRdeKKcvvvjiaq6hL7/8spz/iCOOKOeTpD775JNPyvMVA+cvSZJyNtQSXCyvueaasiEQjQM+d72ITiuepULDhnQ2DTSWbrnllrJisVRY3/PPP1+8+OKLxfbt28uwG2+8sbjuuuvK6RT5+thjj5V5vGPHjip0tLPPPrt2W2Pg+4cffniPfVY377hhEuPSx8B+YZtff/31aikF8qQuz9KBPKbs9/W4XElGlWd/WJEkzRr1AupM/Dg2V9eeXSrt3Llz1+rVq8th3bp1u9auXbuL7GFYs2ZN+X0b04pnqZGu9evXL6Q10jlo+CyEs02DRlMZPkusg/Vt3bq1ChmGsf5NmzZVIXviO5YbNU+KbWOfsAz7KWzbtm1hvzGOvCCcNGzZsqX8HNjP+XpZJtIzqTR9rCNFfkT8DBs3bqy+USrNI/ZfoGyl+76vx+VKQh6n58P8OOqbzZs371ZmJEnzh2tP1GOpS3HtoX41L2yoVTZs2FBW6tIKW1TM2bl838a04lkOVF6jEpWLxgjbMetKbVSuu1aSYjnGbdHAYZm8IcQ2xj6L70hPXdyRN03fLUZT+kK6z9KGrX4Q+ZOXJ07U8V2fj8uVJI7RxR4XS4GGfNdzkCSpP6jLxQ+E/Pg2j3z0MXHDDTcUBx54YPWpKE455ZTiwQcfLKcfeuihctzGtOJZavvuu281tad45PDrr78uXnnllXJ6Vl599dVqavb222+/amp37L9B5b2cfumllxYe+zz55JPLcVtnnHFGNTWZpvSFc889txichMrpP/zhD+VY7Rx++OHF+vXry+k+H5daejz2PGjIV58kSfOG1xp47P7tt98utmzZUlx11VXVN/PFhlolGlK5vNOKcaYVT9+kjbjPPvusmlrZ0kbSF198UTa4Gbqg0T5r6Y8C6ua4446rpqSh9957r7j55purT5KkeXTttdeWjbRNmzbNdR3chlpLcddisaYVz3KKBgwVGjr9oLMUXtKk10WmeVEz7XiE+ThI+I4XOKNnxrwTh+hwgDtYOPXUUxc6HAisg/kYltI+++xTTfULeRv5df7555fjFHcGoudMBqbpOTOV70f2HfuL+dlX5Hkd5o356obYT2lYyDv7SF/qnTQ9k3jmmWfK8erVq8txLtYdZZdxU8dAbEO8pMyY+Vg21SU+sK3p/ssH1pl+To+L/DvyMlAGWC/h4LtYD2P2QY550v0Zx/FSYf1peSMtdekctx/y8pWet/6//+//K04//fTyyQHEOSjN1zb5wH7m2IvvWCfTrCeOP+JJ94EkaTo4vz799NPltf3yyy+vQudU9QikGsR7LF3ee6ozrXhmifcxSGNdsUg7GmFb6Mwi3p9iYJohOmiIjgIY85lng3lWmCGW47nhuvfd4p2v/P0Q8i6+q3vHJd5/6ZLHsUweH+mKbWE8SqRpFvs20kdepUgfeRtprHvHKpaNfcF+i/kjb/P9yH5iXSxLnBHOsql4N455Yr+yHGF5fkXnMAwplsnzbtL0jBLL5OUpLe+x/hTp4z3FtJxGnublhXC2O9JF3CyXztclPkQ+xHP15E28N5nvb+api4f0xDKx/ey79HimfLAcaWFMWL4PI69ivaQ/4qjLuyajtncU0sh2xDYw5jMD+RLG7Ye8fDHNEMdFHCuRD7G+0CYfCGM63VcMESfTrIcxnxkkSdMT51fOz1GP4DPnZb6La/A88AoxRlz4F7tTpxXPLEUlhCEqOqQ3rdhERSZE5YN5wPxRuYlKIgdFLio3dd81VZIQaYyKV4o85ruoMLURy6SVZ9IdacgrgnVi3i7rbSvSN2qIvM9FRTHVlEdxEsv3R5zsorEQomKblmfyjTCGfN9FeG5a6Rkl1h1pYn+m+VpXBhGNnzxtsVyKMpDvB9aXltMu8UVekg8pjr+6+UcdF1E+033Cfot48mM69m1a7uN4TeMYtc4mke9dlom8SNeNuriYHrcfwGeWrTtvIb7P19klHyJ96T5k3vSY4XsGSdL0RP2H83Kcr7mWRN0iv7b2mY8+jsDjSPfcc0/x+OOPL+o9oGnFs5TikZyDDjqouOuuu8pOF7Zu3brHo1zhnHPOKcdsX7zHxf824xGiH//4x+XnVLwDQicOPCa03AYH8MLjTIOKavH3v/+97EzktddeK4455phqruUzONlQm1sYBpXo8rnrwcmo3D91j6uxHYOTUfVptCiXl156aTkOhx12WDn+9ttvyzFYD/mFtDzTOUfb9Y3TJT1txWNsxx57bPk/+di/gxN443ulhx56aDk++uijy/E4lOV0H3AckCehS3zRYU9+vjjzzDOrqcVJ482PaR7Rw/fff1+OQVmirB188MFVyNLhPML68/dDo2MfHv1NHx0dtx9SdeetUSbJh4suuqiaGqYl36eSpOnh/B+Pr1NPinM71wH+Ny/ncN5d4/H0eWBDbQReRLzppptaXcBHmVY8S4nCnDYMeI+DHga7ePnll8txXW+SNH44WECjaLmdeOKJxVtvvbWwvV999VVZge9DI60O6aKjEhqScdK54IILqm+H2B4GcOKi8c0PBos16n29PldCaZSxb2n0grw56qijyuk6lHfmZ0xDIN4Xq0OvqFwYaASSz9FQSBuBXeIb1RvpcrjzzjvLY4ILHT+s8N7VZZddVn07W++88075wwCN7HSg4R0+/PDDctxmPyzGcuaDJGm89EfGvA7HNZQfafGnP/2pHPedDbUGtLR58XuxvfZNK555RONhFBpH2Ft6kZwFTkL8CAAqs3lHIbxQS2OAO0innXbawglqMaikcmcBxJ/6+OOPy4Zjn3+UeOKJJxYat7fddlsVWo8GFR1PnHTSScX7779fPProo9U3u6PxRf7TCOSODg0F7tDmd4vbxhfHBj9ipHeLIj7ucC811s3dt7POOqtsSN5xxx3VN7PHndr4EaVuiPLWdj8sxnLmgyRpcf7lX/6lmpoPNtRq8Es3v8Qu9lfYacUzr6Iy/7//+7/luEnX/02m3aX598EHH1RTw8dXuevw61//urxDSuWy6U5NV88991zZ2PnlL3+5UAnm7gKV5D/+8Y/l577iFzXuRILKfN5jX+DYPfLII8s7Om+++WZ5N2XUHdZ4rII7dzQUeCSPBkY0tLrER1xbtmwp7w7RmCQOho0bN5b5zuOuS4lzGcczA41x/h/NIYccUn07ezSq0wbrKOP2w2Isdz5IkkZLfyiu+5Fu1P8M7iMbahkuxM8///xUGmnTiGee8YszolKci7svox4/03iff/55NfXD+080CmiEcAeNuwzTRgPj7rvvLqepBPMoGl3d8x7jLNY3baR/8+bN5TR3Gzlec2wfDSWO4XGPHHKXLHCRoKFA3rP8s88+W4Z3iQ80rLlzxoWGd0UZwPFEY2Qp0eincULjcqnE+wOxrU13P5kvLsZt9sNiLEc+SJK6iadO6l6t+e6778rxT3/603LcdzbUElTW7rvvvuKBBx6oQn7Ar7FcpFNUEKIykeoaT19E4Z2W//iP/yjH/C+L/BE5KlbcfeGxveV67waTdEoxKfY9d2/yxxNHGZc+4rz11lvLaSqQ0Uj629/+Vo7zX5M+/fTTampo0rsMlHEaDLznxTs7PH7GdFMjLd4LS8sBjclXX321+rT0uBsSJ3OOSdKTincs+WfnIc/PyD/ukuVlPO8IpUt8IE38Ty8aG/GIH/ledxcufkHMH5WkrPGDyGKQLzR02M9p3OkPBJi0LNVhO+Pub+QjPzzQeI39xPo4//KeQTTm2uyHSRDncuRDaLrWGD5k+JDhQ4YP7W3hqeiwLupHqT/84Q/lTYILL7ywCum5wcVfA9Ht9dq1w/+5kw98l3YJTnefhDEwHbrG0xd0GT2otC5sE/9raZxBQ2uhC9SmLuIjP5gv8onlyB+GHF2CR5wbarpNjy6vB42S3bq5Zjryl+1og3QQT6SPz12l5YDtSdOUi7QztJGmj7jT9LEe9hHhfE/60+7UmY51kR+sm3ljHxMv+UucDDFvXjZjfvI23TbWx0C8MbAs+ZEeDyG2PZZh3ZSZPJx1TJKeJhE/Q10ZJY7IYwbmj3yMdaVpJozPhPOZcJAewqOre+KNeSOdXeKL/cc+IywG4id/030dovzHMsTN/Gl45GcclwxpXGl+pPkVaYy4iZP0RhzMO+6cQdwsz/xpvqTY98TPPOn3xB/rSgfiSdPfZj+wjtieujKB2Fekl3lIE2K5cfnAuiLfGddta3ruqNufIZ0vPbYMHzJ8yPAhw4f2tvA6cZ3jHM05mCGuL+OW7RMbagNcWGPHjxrSiy3TVGgYInySePogCm7d0FSYm5apQxxR8WFIK4ypqNjkA+Go+y7SN+q7Ok3rYmirblmGSG+O9FDRIy/GGZW+dGA+Kod1ZYqTVFQsWWc0ygij3FI5bNqPpLUpHGnltG4gftYVSF8sw/pZLxhTHkgr80yanlzT/Ayx7kA+RD6l85Ce2A9sT5TZaDSklXzyN99nkeehS3zMG42apoG4UmxHGn80nAgjLennuria8h7ETZx8Jl2R70yTd9EwalK3zlFD3TFC+tM8yfMX4/bDqG1Mpdub7pc2+dCmrNblR14uA2WBdTIwHQwfMnzI8CHDh/a28CZ11w3O4/NkFX8GiZek1ng0jd46oyOTN954oxyHRx55pHxHcW9+R3OxePSR/0HIi888lpx2FMMjsTwKSP7yOKAkSVp5bKhJ6oT3dejtMf5HWx3mefLJJ22oTYh3GWmMjeq0gnl+9KMf2VCTJGmFsjMRSZ385Cc/KTtVGNVpAo20aXTisDei0wp6otyxY0cVsifyno5YzjzzzCpEkiStNN5Rk9QJ/0Cb/2u1evXq8m7OYYcdVn0zfCSP3g2vv/567/RMiJ4g165dWzaG16xZU/ZMmf7/O3ru5G4m/yx71P91kyRJ882GmqTOeEft8ccfL/+ZcKBxwXtpl19++ZL/n6+Vhjtmjz32WPm/6WgUh3Xr1pX/+4VuhZfz31pIkqTZs6EmSZIkST3jO2qSJEmS1DM21CRJkiSpZ2yoSZIkSVLP2FCTJEmSpJ6xoSZJkiRJPWNDTZIkSZJ6xoaaJEmSJPWMDTVJkiRJ6hkbapIkSZLUMzbUJEmSJKlnbKhJkiRJUs/YUJMkSZKknrGhJkmSJEk9Y0NNkiRJknrGhpokSZIk9YwNNUmSJEnqGRtqkiRJktQzNtQkSZIkqWdsqEmSJElSz9hQkyRJkqSesaEmSZIkST1jQ02SJEmSesaGmiRJkiT1jA01SZIkSeoZG2qSJEmS1DM21CRJkiSpZ2yoSZIkSVLP2FCTJEmSpJ6xoSZJkiRJPWNDTXPh9ddfL6655ppi1apVVYj66Oyzzy4OOOCAcn/1Qd/SI2nv9cILL5Tno4svvrgKkaTRbKglvvzyy7IxwImUBgFjPhPe1b333lscccQRC/HccsstE8Wz1LiQULkl3QwnnHBCuS2knW1YDqTp/vvvLx566KEqZP6Qfw8//PBuecvA56eeeqqaS8uFhly6X/KBY5lzQd7gG7dc3cA+76rNejjPEDflbB7ONUuN81hdvsUQ+efxOHvjyrMkLQbXwLpzSzpwTZ8Lu1TauXPnrtWrV5fDunXrdq1du3YX2cOwZs2a8vu2WJ5h06ZNuzZs2FDGSTzr16+v5ugn0ks6N2/evLC927dvL7ch8qIO82/btq36NDuj0tCkD3m+devWsgxQjrZs2bKQtzt27CjznO8ob+S1llccAwzsN7C/0nD2YSCcfZeX/5g3DWd/Ux45N0wqTUcaN2kkvXHeoqxZnvZEPrEPIg8D4ZzH4lzNOU+zx7EU+4LjgmNkOfX9Gi2pnfTc0jTENb7vbKhVuDBTCYpKNKgIdb1wUzjSihyoMEXBWO4LURPSRfo2btxYheyOSgzf16FS2MeGWmzTcoqTBRXotGylKB+UMwYr18uLfRTlLC/TdY0kwurKflMc0VCY1Kj0hWisMdaeyLfIw1x6cc/P45qNyO+m8rxU+nC9kDQd/PDTdA4nnPrWvPDRx8QNN9xQHHjggdWnojjllFOKBx98sJxu+9jdUUcdtcfz58ccc0wxKDTl9Pfff1+O++bZZ58tx//n//yfcpy76qqrikHFr/r0Ax6zGlzgqk/9Mmh0VlPL47333isuueSScvp3v/vdbmUrRfm46aabiq+//rq44IILfGxtGTXtI1x++eXVVFE8+eST1dTwPNEW8R933HHVp+5GpS/8+te/Lsdvv/12WQbVHufuwQW8nH788cfLsfYOy329kDQdXPduvfXWxndBn3/++bl6T9SGWiUaZLmuO5NKdx0q3zR0mr7vi/vuu6+xoXDRRRdVU0McDDfffHP1qV94z+Tpp5+uPi2Pu+++uxyz38dV5qMRQKM3Gs3ql7SR9Mknn5RjftzpapJluth3332rKU3ixBNPrKa0t+jD9ULSdFDPbqpzUb/lWP/xj39chfSfDbWW6u4mtcVFgAr4o48+WoX0z4UXXliO+RWeF+rrfolPK5h08HH66aeXd4Fw6qmnli9nRkcJfJ/20khHJPF9vMiZzo/8Zf+844Y66fwMxMEQd7IQ3+XrZr6Qfxc4qNl/fM/A55g3XT4XJwPkDdw6NALirmtaTkblY4o00vFLpD8f0rSSr+n20lFGvi35doO7p9FBDj9gME+Kxgvpo1OGfN+xHZE+vmd5PudYR7odTLNsrk18o9KzWPvvv3811T90vIM1a9bs8cMQeUJekSeRd3UdJuXljvyL/GbcdKeuTTlMP6flOP8u3WeTpqcr8uGll14qp5v2Mesed/yAuEhz5DXp5HM+b9v4QJx8F8dh3cCPjunnNK50PQyBeLse72h7vM5KXt7qyjJlg/THPGwfn6N8kT9114vIN+LjPJLmOcvnZY7P6fmGtDHNcvHDTp7HkpbWK6+8Uj41ce6551Yhc6B6BFIN4rl13kXpiveNoiMO3vHqu/T9DAbSzvaPwnPAzJu+X8ALmukL++Qd777xTDCfiTPeeWP5FN/FfPk7CxFfKp41Zh15WuvmR6Qt36ekO1+GdPKuD2GklTyJfcq7eU3S92DavrAa8TKgTT6CMD5HGYt33ggjzlSkK8LjnamIPzRtN/Ow3XncxMt3hDOk+y7WGWGkO9aZiuXjuXLmi3V1jY/vmtIzTtMyUWYZmp59D01xTEPEnZer9HzD/s/fd2RfE85+ZRqRR+lxmJc7tpXvmZcxYXVlv0s5jLxM1wv2ZSwTeTdpepoQb8SVG1dmYtnYnqbjB6SN7yKv03NV6BIf2HfEEWkjTuZlyMtkUzzkZywTuh7v4DvCY71Nx+s4zN91GZAe0sx6EWUqLd+M0zznc6Q7X1+kI0d+EEccT7HPCIv18F2UfwamGSI/yCPWG+WVsaSlx3kxP5f13Z5nJe0mLlRxQm4rTubpMA+Fg4s4F6BIc1zkmrY/Ljx1F9mIIyqUXFDzi13dBaspzogvEBcX5Ygzl88f4kLNOFe3THphjkoB64zpOmmlvi5v6kS6GNJtirC6fGSa78iHVFqBS0XlLU1T076ICl1aSUGsk/Bc3b5ju/L0RQUqxWeWTdXtq7bxYVT5bML8DGnFl/0Z6WtzHEccXdbbVsTdNHC+qjsmokymeYlYLkV+RnjeAIjKZ12ZaFsOm8oc6vZZ1/SMEutmCITFsVG3jtDl+CEsjtlA3qf53yW+yEsaACnKY938rIfwfH+DcIZU1+O97fE6DvMzpHkwDnnB+vPrUpSdWH/kZd18+foiHSnygbA8b2M9eRwRHvuI9abzRHry+CTNXlxH8vNy3/no4wg88nDPPfeUL5W3eYk/xfOxg/wtBgVi4ZE2OiRpeqSlL7gd/NFHHxWDC135mUcbb7zxxuLII4+c+JGWuMV8+OGHT+0dPR4hIV0vvvjikr33x7srbANYZ0wvlbp85DY+8vJ55plnVlO7G1Rqy9v+Bx98cBXSLN51YrvTPI7tjsde2+CRWvZZIL08PpQibYOKfvVptDbxLRbva/LoEo86XX311WX6Bo2dxvdZl9qg0leeYxgGF6CFc82gYl0ce+yxe5xrDj300HJ89NFHl+NR0vKU5yuPciHtGKlrOeyqa3raikfZeHSbR5U575F/TWWpy/GD//zP/9ztUbx4xDx0iY8X4LHffvuV4zCtdy26Hu9djtdp49hkH+Xl7YwzzijHzzzzTDkOt912WzU1dNlll1VTo+2zzz7l/jn++OOrkHbOOeecckz6unQ2JGl25vKxxwEbaiNce+21ZW98iznRUiBoTGzYsKH8/Mgjj5TjPuPiwvtoVFgi3VykzzvvvCV9/6AJ7yHwTgEV5vxC3Rf//M//XE0Vxeeff15Njfbtt99WU82d0uTySltoypc777yz+Oqrr8rKF+9NUJlvW2mZFJVTTo7sM97NiDKUN3jeeuutcgDve7Cf+aEk1za+xaKnTvIqGkOkjd5P+4j9nZ9r+CEjbczyPdvBmMYD3/F+zzR0LYd9EY1cyhM+/fTTkT/AdDl+Nm7cWP6gwI9czMf8LJe+69slPn40qLNcnce0PV5ngXzlh89oaMdAmY/vwbWbxiTz0qCnzFP2aeS1ua6zX9g/7CdwrmHZeI9R0vyYt94egw21BrwkzYVxWj203X777WVlgMbPvOAiReWXX+6jInPdddeV4+UUaVm/fv1uv1b3Cf+mIbz//vvV1GjvvPNOOe7yK3X0UPf3v/99t7yIl9fJoxzfcbI666yzygr2HXfcUX0zG5Qj7tJScaWCQ4OfSlO8zJ8ijMYDFa7TTjttodGR6hLf3ijONeDOQ4oyQocHJ510Ulkup9XB0STlsC9oTP75z38up6nQp43bOm2PHyr3nDu5jlCeuQNF3ufnrLbxcTzg1VdfLcchfgj66U9/Wo6XUpvjdVY4/uNHlLoh0JjkTjgNLn7coeHM9b2L6FjlL3/5S/Hzn/984SkZSfOB8+689fYYbKjV4ELNL4TT/IWeygCVmahA9Q0X3LwXq8Avj3/84x/L6T40NKkAUfHjV1PuevYR+zsqpy+//HI5HodKLq6//vpy3AaNli1btpR3PHm8h5MRA5UYytpdd91VzTlE2abCyPDxxx+Xd4gOOeSQ6tvZIT/Yb3GXljGPm6WNK36RJ4z/A8adISqvo+7UjItvbxXnGsSdBXB8U0nlB4E333yzzL+2d27H6VoO+4ZzHJV5UJlvKkddjx/iZT7yhmXIh5/97GfVt93i43igrPPjRDQ0aOTx/4L4cWep7/Z2OV5noe15FeRN+kg/jzLnjwbXoQzTEP3Nb35TPPfcc2WdYN4em5I0v489woZahgsnt0en/RhV4GLWV//1X/9VTe2pb4X7gQceKCsn/EJChaGP4n/MUVke14Cg3FHJZZu6lhHmp1FIpe2ggw4qB7z22mtlBTpFXlEppJK+VKgQUeEB6eHYouKK6EqeRgR3M6iIjitrbeLb21HpR3p3lv/rRxkjv2jMTVuXcthHVObjx5Wf/OQntT9cdTl+uHsWyBsax+wPGloRd9fjkbulxMGdUB71Y5o7cTSUllKX43Va0h8TyTPOq5w360Tes0w8Gk2Z5wkZyiMVtjaPafI/LVkPdzmn9aOGpKVHvZ7z1TyyoZbgpM+jQjQCclQM8wYBv2q2fYSCCwx3TJb6V88uuPDWVU4QDY1xBX1cgyTE+wH5o1JcVKOSOQoXXSonXHDbPK6ESNvJJ59cjvNHiLo+DjMOF/ZoQPDeSbqdKfKcssW2TPIoGsvyP+3Ij3jsh/zIKxash4o6jwClacnfoWtK52I89thj1dRQ3hj929/+Vo6p5Kd4ZygVaRsX36Rmse2jUN7Thuc4beajHMed7/TubNyB+OKLL8ox8vxezPa3LYdY7PE/K5z7aQRwnFxxxRW7pa3r8cN5KZ2Pc1b6PxW7xseYdzI5R/A4H/nLsk0N71me57oer4tFPPwIE2XpyiuvLMfc/eT4iXQwphymd/Z+//vfV1NDxBF3nEfhekGjDp999lk5BmlJt2ta21inqY5h+JDhQ4aPxjHKj/r/+q//WoXMmcHJXgODCnXZbefatWvLrnPzge/o3jpEN7sMTIdBZbsc6B54UFkqw/h+cPFv7PK5D2J78rSDdBNO3uTdHK+vupfmu40bNy50ixxdPTM0dYUa+cqyLEdcrCsNjzxP40u7jo79xhDrDqSZcOJliP3ENqTfsRzrjK6YIzzSzXYRxjJpvrQV+RdlIPKQuFh35G1d3OPyMdIceRgD62F707xCbHfMz3YPGt8L62BbYz0RTrrT/Z7mU5qmNF/TY4X1EMY44omw2Cd53vM9aWSaMNJAeiLPxsWHpvSMEvEwkBeTSOMgzaPEfCzTRhp3vk3k4ah1R16SJ8zH94RFHvE50pEeV2kZIk/ZF4Sn+RP7r205RJfjv2t6mjB/5APDqGOKgbxh3XFsRl61OX5iviiTxEFaWSZ0iY+8IIz0R/4y8D3ryM8fafmPZYg/3T7CI/5Yb5vjPY+DuNmGyNv0eB0l3a/EUYd1Ene+fwmLZdOB8Eg/+UIY6Yq0RFi+vjSvGJgv8pyB9TOQh7Hu2F8g/ogjT2tgnXyf53GdSCcD08HwIcOHDB+P8wzH3LyyoTbAhSB2/KghPbEyzY7PT7icoONkzRAXmHEXrOVGgWcgnVyc0osg28gFpu7CwgWb75kvLk5cvGLZGAjLsWzMSxxRCSCMC2X6uSm+PJwhDl4OTvYFA9Mp4o50ExdpAfNy4Y3PedwMTRWKUcg7lkvzlXWxnXnawqjtDsSbxlk3pMuk+4vlIq+YTvMpj4OB9DelKSogeThiOeKP79J1h9hffB8Vq6j8kObYJ23iG5WeOiybzx8DcbUxSRxsJ9uR50VuVNzpQD6lx06KskIexHzRCOK4JWzc8VuXpwzoWg6x2ON/VHrqNM3PkOc/ZbFunrbHD5gvzRO+J4/T82iX+Jg3LfN1Q17OFnuea8p7tD1e67Qtz+lQFx9pjO1jvXn+sh7yMuZhYDrKfiq2hyHN9zg+0vjJV8LICz63KYt138f+rkO8pJUh3SbDhwwfMnw8zgFxfZtHq/gzOGFImlM86kNPRnTT/d133xUffPBB9c2wy38eweLxqGk9HijVsRzOFo/v0HnSL37xi/Izj0imj+Tx2CF5PGgszcU7gZKk8WyoSXOM9zOoBI/qjIB5fvSjH1lB1sxYDmeP99P49yijOu9gHhrDNtQkaWWwMxFpTtEZAf+/iF/Qm/ArPJ0JnHnmmVWINF2Ww9njxXl6i/zHP/5RheyJ/bD//vvbSJOkFcQ7atKcooeztWvXlj3HrVmzpuxaPO3tjEeh6B2OXuLqet6TpsFyOHv0hsk/dgd5nfYeiXfffbf45ptviieeeGIm/3pBkrQ8bKhJc4w7FXRV/8wzz+z2z43XrVtX/PSnPy0uvPBCK26aOcvh7NEg/u1vf1v+m4W4e7l69ery/6idf/75PlIqSSuQDTVJkiRJ6hnfUZMkSZKknrGhJkmSJEk9Y0NNkiRJknrGhpokSZIk9YwNNUmSJEnqGRtqkiRJktQzNtQkSZIkqWdsqEmSJElSz9hQkyRJkqSesaEmSZIkST1jQ02SJEmSesaGmiRJkiT1jA01SZIkSeoZG2qSJEmS1DM21CRJkiSpZ2yoSZIkSVLP2FCTJEmSpJ6xoSZJkiRJPWNDTZIkSZJ6xoaaJEmSJPWMDTVJkiRJ6hkbapIkSZLUMzbUJEmSJKlnbKhJkiRJUs/YUJMkSZKknrGhJkmSJEk9Y0NNkiRJknrGhpokSZIk9YwNNUmSJEnqmblpqK1atarVcPbZZxf33ntv8eWXX1ZLjvfwww8XBxxwQPWpGXHXrTMfTjjhhOKaa64pPvnkk2rJ0cbFy/a8/vrrtd+lA+rC04F4mrTZvti2PJ66eccNaRx136fDqHSP03b/jstj8ifVlF9pWimH5NcRRxyx8P3FF19cPPXUU+X3eZyjsA1syyiUlTQtMZCGXNP2jsvrtvk5Th+2p27+fGAf3XLLLbsdz03rqhvqlm9jOcpt03fjhlhH3XfjhnT/jFt/Om/Tdufbm6tbJh1STeWP8KbvRg1p2touTxlgOcrDqOvauHLAkOZfHc5NDJOqW2c6jFv/KG2Phzb5yvk4PQ+30Xb9TWW4bl1NaW1CHKSbdKTzR/ngHPPee+912ofExbKjNKVzmtcVaRY4ZtJjkvLO8TFX5XHXHNm2bdsukpwO2Llz564tW7bsWr169UL42rVry/A21qxZUy5DHOPs2LFjYf4YSBe2bt1arjfCSc/27dvL78YhremyDOvXr99jG0hjOg9DrD+wzjQvGDZt2lR9O1rT9tXl8YYNG6qlhlg2X28qjyNPd93+JU8Xq8v+RZs8DuQ137MOlkv3V+wHhnQ7mC/N4zYiTSw3Dmlgf0f8MTRt/+bNm8vvGeflrU7X/KzTp+2pK3egPOfrzdeZf79u3brqm+H+53N8Rzloez5A13yOPE2HruWW9HIeSstrvo18DnHOS7d7secBvm9zLgx8xzycj9rmbxyb6TrS7UqxXvKJ+ZmH7Utt3LhxZDysK9KY5hOIO76rW578jXLAQL405UPosm0ptivmz7exiz6cx0fla5TZCG+Tp+iyfvIvXz/7pK58sm7KLt835RN5GutnvvSYZZweTwx5OWvCcsxP3OOwHvIw1hFDU350PQ9L08ZxFeU0jq0o86PKbt+0qyX2SFrxYUilO4Ahb0jUYefF/G1PbvnJKq1opBc7hjYnwDAq3lQ6T1OaR+XTOKPSkedxXPxCm/VyseK7uu1bTLrrTLJ/kaZh1HKUMSpqdRei2Ja6kwHzR2WhjbRi0VQucjF/OowqU21Mmp+5vmxPGFXu0pM9Q77O9Ls8T9jPUcFioDLVptKyXOWWymUelp8P8mOec16+rlH5GUadB9qeC4mDstS2DKXapBEcv8zb1Hhh3Wk8ef4E8rZun4xbPvIphro4cm23LZU2OJu2oa1J1j/KJMfDqHzNr9Pj4pzG+hmajn/mbYo3veayfF1jD8Qb59W2aezbeVialvS4yY+H+BGF42kerKh31M4888xqaujll1+uppr94Q9/qKaK4qWXXur8eFLu8MMPLwYnv+pTUQwuCIuOs0/yRyqeeeaZamq8eOznmGOOKQYVxXJ61qa9fwOPIPEY6GmnnVbceeedxYEHHlh9M8TjJ6yvCfM//fTT1afRiOvtt9+uPhXFk08+WU2NNjg5lUPqJz/5yaLyYBr52aftaePSSy+tpob++te/VlPjsZ8HF4XqU1F8/fXXxYcfflh9arZc5ZbHRPKwcTjnvfjii9Wn8aZ1HiCtV1xxRbnuU045pQqdLh7t+u///u9yHWxnVzxew2NjuOuuu8pxV+RTek0ZdV5ZjIceeqiaKopHHnmkmuqHWVyn03MJcY56rHTS9Q8av8WgMlh9Gh7/Uf7boPxccskl1aeiePDBB8vyUIfjlnKarm+UeTsPS108//zz1dTwupc67rjjyjHH4zxY0Z2JjDthcWLJK8uPPfZYNTU9++23XzW18qQn+nE+/vjjaqooK4qzNqv9ywWOi+2jjz7a+C7A999/X00NK3t1z0NTWUgr8U3y9weoUI2qVKSeeOKJYs2aNdWn4YmJdbZdPjWt/OzL9kzqnXfeqaba6Xr8L2e5XQrTOA/wzh8NqLfeeqtzw7INyhN5RfqoHE/q888/r6aGx/skjT3MYhtTNHrTSgs/ML7wwgvVp+W1VNfpph9QFrN+jv3XXnut+jTENbPu3a46l112WTU1NO64pZy0La/zfh6W2uKYS+tgn376aTlu+6PGcltRDbVnn322mhq6/vrrq6l6zL958+bq01D6q+Ik8l+p+MV41hfZ5ZT+0jsKBwkX/8AFZ1a/godZ7F8qLzfeeGN54W76ZRMHH3xwNTW8iJ166qnlxZmLfooK0ihc+KiM8stsKi/rTSh7zz333G4nJMrnbbfdVn1qbxr52aftmdTxxx9fTbXz7bffVlND++yzTzVVbznL7awt9jxA+WGZH/3oR4tqQI3COfxnP/tZceutty66Qfv4449XU0OTpjmtAM+ickE68zKX3kVaTrM4HuocddRR1dTuFrt+jrctW7ZUn4ZYfty5n2M2PVbyu1hNeLJo//33rz7VWwnnYWmU888/v5oa4q4vxxRlP469WV1Dpm1FNNSo/PLr0M0331x+5peerVu3jr3I8njHhRdeuNvjN1Sqx51A67DzKQQXXHBB+ZkT2KZNm+amILSV5824xjCo+Pzyl7+sPi2dae5f8AjTeeedV5xxxhljfxnn+/wiyMWZslnXYGvChfOiiy4qLr/88ipk6De/+U01NR4VhT/+8Y/VpyHSEo9ktTWN/OzT9rSVPxKUp30Uzgvpr/Hk3biG0nKW21la7Hkg7gjySDv5Mwucw08//fRyejE/JLHfuSZN4zHF/Me/aV9TiB9XXXXVbndJKLdtz1OzNO3jAWxXum+Iu+kH1Wmsn7pIfj3gkca6Jy3C//zP/1RTQ21/IGI7xqVtHs/DUhccc+mPGxyzXAePPPLI8nObNkJvVO+qzY1Bxi+8IFg38HJs08u2KV40HJx4y+n8pV/WMQovJafz58PgYlfbgcQ4ebyjXtCNoSmteT510ZQOtmnQAF0IH1x4yvDUuP0zzmLSnVrM/kU6P2WKuNKwpn2T4uXuUflRl385ytKOqhODPK5xaci3s67c8pI8mB5lsfkZ+rI9uTwtYP+l66Ds1x3X6XJpGtme9clLy8Q1Th/KbS7P5zbbkednPoxTt8703NMmL8bJ07i56qUuhjbbiXw/5cO4ePLlY37KH+WZ/Ug4x06U73HybRuFMhLlui7fJ9Fl/aMs5nhoylfCI08jnroOPrDY9ef5l+cLZZrzIfPm8eXzTrov6vT1PCxNW34NZOC4a9NO6Iu5O4rykwo4yXJCTS/k4xpsxJN+z4krjTdOYnXyE1Oc2NKLKgPpaXthRVO8uXSe/KQZ6vKprboTbwzES8FvSlvdepk38necxaQ7RTyT7l+k87If83TFBbYNKoBp2UwHyksT8o2KfqCMp8tGBaIJac7lJy3SRT4xPcpi8xN92p5cvn9jiH1Po7ppG+uWSwfyqq3F5nM6b6Q9D2tbbkN+PuDzOPl60eU8kK+T+Eh7Gtbmh45R8jRGozod2py/2a50GdLONYn0xedR8uXrhnHHRq4u/+uQzrR8UjbS5bqU3VTb9Y9DPJMeD6PylfMu+5tz0CiLXX++78nvtI7AwGfKGetK5XnY5rhrg3T19TwsTRvlPT9u0zI6D+buKMpPXqk4McTAjqj7pYyTa15Bzn9NHVUJyCsRFIQQF76m70cZFW8qnafupIlR+TRO23TUaVovcaSfmywm3WGx+xfpvJHHedrydYxCuSBf88omQ9MFmItfXlHMl68r3yHSnWqqKDBuMo38RF+2p85iyl26HPGQpvwc0LSPU30st8jPB222pSk/254H8nWyXCybDl1+CMvVpTFfL+VzVGUcebrS/GEd4/Krbvn8WsbAfG015X+OSnpepvIG6yR53Hb9oyz2eBi1X9qYxvrr1sm+zc97rIc8S+X7oS4uwtJ58qFumT6fh6Vp4vikDHIs1ZVRrtPzYEV1JsIz04MdUX0aPpP6yiuvVJ9+QI9N+btV+TsPPGs9CZ4PHxSK6tNQ225vVzLe9xgcFNWn6aH3t9ys9i89XQ0uaNWn0b138e5B2qsW5eKGG24oPvroo/LdxdSrr75aTf2Ad1x4F+fcc8+tQoYGF9lqaqjty9+BdORdOKfvv9SZRn72aXtmjTTxon2KjjziXaAmfSi3s7aY8wDL5sfOv/3bv43N1y44RgcV0erT8BrC+ZzyO4m81762uJYNGgXVpyHimjQdTe6777493lP6+c9/Xk0NLUWnIkt5Hm9rVutn3/75z3+uPg3VnbPiXcnw7rvvVlM/oLwO6nF7HBcc74OGYvl9am86D2vvxruS8S9ROKdFGU3bCDt27Bj5nmhfrLju+c8666xqauizzz6rpoY4UXFy5UXeVatWLQwHHXRQNcfQYl5W/pd/+ZdqaqgPL2T3wRFHHFFNDVHBWswL4bz4n3d9Psv9y4Ged7XMupri+dOf/lRN/YA4uHhu3bq1CqlHJYGTSLoNDPn/Yury8neo244m08rPvmzPUqmraNPRUFNFu0/ldtYWcx7g2El/CCM/+F9qTfk6ibzrcSqck/Zmd8ghh1RTP6hrlNShc490Wzl+rr322urTENcW8pOy0nV/UkFh29jWtMzxwn1q1p2KLPV5vI1Zr58fHfLzQ45GYdrwGfV/YU8++eRqaujEE0+s7QxnbzsPa+9FJ0DhpJNOKseU0d/97nfl9DxZcQ21/H8c0Y1zijts9PTCr1D5wC9Qqbxr5bY++OCDampoOXta6xN+zUhxx6muItPW73//+2rqB7Pev3UVcO5O1P2qT69iTb/W8Itm/LJT15UyJxkuqHXbkf7izzyT/CLEdmzJuoyuM6387Mv2LCUq2vm25RXt0KdyO2uLPQ888MADU2tI1eFint8RnbRhS2U5vatBg6fL/+FjW9PKOo2m9E49dz4oV2gqF+nyKZ704JipK3P5HZqud1i6WI7z+DhLsX7OD/mdrBTl8O67764+DRuFi/31f288D2vv9NVXX1VTw2Mp1P2A0XuDA3SuDE4muz1jmhqcXHb7bnCB2u1Za6YJY74mgwrAbnEMTsrVNz/gue9R87SJo864eEM6D/lRZ1Q+jdM2HXXarpd3I/g+fxa+7fI8Y8/3adqmtX+RzlOXxzznn87DetMXU4m3LjxEWpknTwP5T/xNIu9iqEsf8deF5+IZbobcNI+XPmzPKMSdpqGLdLk8jel+joHtTU0rn5HOU5df48ptnfx8wOdx2uZn03lg3Dmo7j2fUWWszrg05uWSId93iGM9hqb8YRt5RyJ/r2nc8vn36T5L05gul25bXb4QJ2Wqybhr6Tht9/8sz+Pj8rXJtNbPtrVZZ7w3U3e8Ij1mmbduP+TbWhcXaenDeZj1kL8M6fFk+JDhQ13Dc+lxk76TSRmO8FHnwD7pViNZZvnJiCFOpuyIOOExsBPTCgjT8f2oisnm7GVh4klPwqwvP0lHYSFeXlqs+26cOAGmyxJXflKOC1s65BcJ0ki603naXqTqtq/Lsvl68+0nrekBlKrbv+kBBvKD9MT3se3T2r9ok8fpwR4DcRE/36XbQjhpjn1JPsW+TvOH7yN95FHMnyM830fp/Iwjj9uUv0hLahr52aftGSXdVzHk+7tJWhYZ2A72b6oufvIFfSu3OcLyc1rdeSm12PMAcbc5F6aVwRhYblQ+hro01p3n0mtKDKw33cd5OlgmTSvzsv1RxtP1tM3fvJyl+z8/l7D9MV9deaScsDzpzL9L5ekaN3+oK+9LfR5vm6+5aa2ffCIe8j8Nr0OaWJ792CT2GesiTvZ1bEuelwx5GYv09uE8nMaffm/4kOFDXcNzHINxzMS5Ky3DfDfqGO+T5q3smXTHNA1xsssrHXUXDoZU0zwxcOKLE8+4gfnyi/ko4+Jl3ePSx4C68HQYddFok44mdfOPG1hfqPu+zUAeT2v/jpsn0ttmXzAPJwRwkaWSECcNxnxmnlRd/ud5Pm4fNaVtFI4VTmShTRzj8qDpeFmO7RmlLu50yPdRGLf9DKm6RkXTkGqTz+Pm6VJuU+P2TcSbqptv3JDG06Y8tJkvL2epuvnTIdR9lw5xwe86xDaQxrrvY8jzNxoQ6RDbyTj9ngo3Yel1EHXrzNczLl2R/jp187cZpnkeH5f+fHvDLNfftM5AhZFrwijsS+o2xBXXkhjY95THtAEXmD+dl4E0purmSYc2eZNrOg+TRtLPkDb4DB8yfKhreB3KINfe9AcIpjlW2tbP+2AVfwaJlyRJkiT1xIrrTESSJEmS5p0NNUmSJEnqGRtqkiRJktQzNtQkSZIkqWdsqEmSJElSz9hQkyRJkqSesaEmSZIkST1jQ02SJEmSesaGmiRJkiT1jA01SZIkSeoZG2qSJEmS1DM21CRJkiSpZ2yoSZIkSVLP2FCTJEmSpJ6xoSZJkiRJPWNDTZIkSZJ6xoaaJEmSJPWMDTVJkiRJ6hkbapIkSZLUMzbUJEmSJKlnbKhJkiRJUs/YUJMkSZKknrGhJkmSJEk9Y0NNkiRJknrGhpokSZIk9YwNNUmSJEnqGRtqkiRJktQzNtQkSZIkqWdsqEmSJElSz9hQkyRJkqSesaEmSZIkST1jQ02SJEmSesaGmiRJkiT1jA01aQV64YUXigMOOKC4+OKLqxBJkiTNExtqmXvvvbc44ogjilWrVpUV3VtuuaX48ssvq2+7YbmHH364jK/v2N6ug4ri9ddfr80bBsrSqHnOPvvs8ntJkiRND3XwtE7PwI/X1MnmiQ21BBXnV199tbjyyiuLDRs2lGF33XVXce2115bTbUUDjfiuvvrqYseOHdU3/UShXb16dbFly5Zi165dC8O6devK7zdt2rQQtnPnzvLz3qDN3ahTTjmlzJc0TzZu3FiG3XDDDeXnmGft2rXlZ/J127ZtxYsvvlh+noVzzz23+Oqrr4qnnnqqCpEkSdo7UAd/5plniscff3yh/nrccccVp556avnU0bxYNUj8rmp6rxYV2rRy/t577xXHHntsOU1j6/DDDy+n26LBdtBBB5XTfc5mGmpvvPHGQsMiUMhfeumlshFS990sGxrLjfLAwd12G9N9TSOMxlmKsnT66acXd999d3HVVVdVoZIkSZom6nCXXHJJbX3shBNOKL7++uvi448/rkL6zTtqlaOOOmqPOyjHHHPMwl2l77//vhx3ceCBBxZr1qypPvXbySefXE21c8YZZ1RTKw+NrltvvbX61A77ukk00h588EEbaZIkSTP02WefleODDz64HKeor/X9SbeUDbUKjbI6VNp5ZK3p+3Hm4f00fm3If3EYJ7/DtpLcdtttUzuI00aaHXtIkiQtjccee6ya+gH1+rgJMw9sqI3ArVMq7I8++mgVoiYU/LwjluhMI3zyySdl5yx8x+OWLHPNNdfUzp/GxWOWNHhSPF9Mw4fvwPzE0TQ/WCffMQ8D8edp5PuHHnqonOaxz5h3kpdPSeMFF1xQvPbaa60baW3ykW1L85FyyjTLkMfI8yfVJh8kSZLm0YUXXlj2vUA/E9SXAv1H8NgjP57PDd5R0+62b9++a8OGDbxUtmvz5s1V6GQGrfYynnkUad+0aVMVUm/nzp271q5dW+YZ0wyRf4yxbdu2Mh7CIl9ZZuPGjeUQ4Vu2bCmXWb9+fTn/mjVrynDmDSzL94STRpZnvkgvw+AA3TVoZFdLDNdPeKSHNEYc+fbFvMTXRayb5dkO0kBZaqtNPhJfml+Rf5FPrJftIR4+59vQJR8kSZLmEfUh6jYM1Imo41Anot4zT2yoZaIimw5RqZ1ENB7mUaR9XAWe/MkbBBwINFRYnjwNEWeep6yDcBoc6fxpPHUNL75LG9M0ZGL+dB3RGEnjjjjytDeFj8MysRxjTgxdTgiT5CONNDBfm23rkg+SJEnzivpN1KEYp3WfeeGjj5noSn3r1q0Lz7DyKJyPhtXjUT3y57LLLqtChnhZ88QTTyyn//rXv5bj1KWXXlpNDUVnJjyGl74vl8bzxRdflOMU36UddPAuYdzSjkcYQacug4O09sXSaYveQd9+++3yEUPyaJxJ8/Gcc84px8zX5j3DpcwHSZKk5fL555+Xr4GsXbu2fOSRrvmjl/d5YUOtAf+Hiq7ZN1T/T+2RRx4px9rdhx9+WI7pBjXeeYqBd7zwzjvvlOOlcuaZZ1ZTw/excOedd5b/V4xGFO9x0fDOG0XTQiN0+/btZYOobWNtqfJxKfNBkiRpOfA+2n333Vf+eP/WW28t1OepZ81TY82G2hi33357WeGep648lwN3ILkTWTcs9f9b4+5SHRom/LJy1llnFfvtt19xxx13VN9MH3f26EQkGmtHHnlkbQcnuaXIx6XMB0mSpKXEj/RXX3118etf/7oKKcoGWzTW6MiuzdNOfWBDbYx49IwKt5r9z//8TzXVL/x/PPDrCY/9MfBPDnlc8pBDDim/m5W0scYtd7rpH9dYm3U+Lkc+SJIkLZX777+/HPN0XIrG2vr168s6WTzJ1Hc21Fpq27363ibedeL9qrpGCL9YLPX7ffErCc8kx901fj2hccKjf0uJxtpHH3208Hx0U2NtqfJxufJBkiRpKXzzzTfV1J5+8YtfVFPzwYbaGFSa//73v+/WYUXg+VeGUbhrsZLxrhOdrkQjhDs20VAi73g/KzoKmYW6/H322WfL8fXXX1+OSQfp492s9FY3L5mm0u9ShNc1nlJNy4LGIo8tpo21/PnopcjHxeYDmsq84UOGDxk+ZPiQ4UOGDxk+ZPjQtMJTZ5xxRjnO61r43//933I8N52q7VJp9erV5UA38dENPN14rlmzpvxfDLno0pyhqbtPuoqPeeri6LN0+8Z1M09+kXcxfzqkXeSn8+X/ny7tnj/thp9pwvgu/TcBafpYR6Qv/n9Zul7EetkW4qEreuaJOOjmfuvWreW86X4jnHnHdbMf6WdI05NK18dAV/mxTkySj9E9fy7yh7SnuuRDrqnMGz5k+JDhQ4YPGT5k+JDhQ4YPTSs8Rx2Meg51nrT+HXXEeaqT21CrUEFNK8nsYMLSRkOKQkADgqGuUh7x5MM8qEs3Q17pT5EHVPgjD8mXtDGWNmTSAXXhzF+3TKQhDtbYT03rDTS+osHHMnGA1x3IIM6Ij2WbpCeNfCD9gXTXzcOQ5uti8jEV6cr3Wdd8SDWVecOHDB8yfMjwIcOHDB8yfMjwoWmF1+F76kzMG3UlfiCPes+8WMWfQeKluUKPPvw/jEFDZMl7lZwH5o8kSdJ88x01aQU7/vjjqylJkiTNExtq0gp2zjnnVFOSJEmaJzbUNJfeeOONckyvj/wD570dPRutWrWquOWWW8peG8kf/lfIKaecUs0hSZKkeWJDTXOHBsmNN95YTu/YsaP8v2BL/b/a+oZ/Wk0+3HXXXcVJJ51UhtV1SytJkqT5YGcikiRJktQz3lGTJEmSpJ6xoSZJkiRJPWNDTZIkSZJ6xoaaJEmSJPWMDTVJkiRJ6hkbapIkSZLUMzbUJEmSJKlnbKhJkiRJUs/YUJMkSZKknrGhJkmSJEk9Y0NNkiRJknrGhpokSZIk9YwNNUmSJEnqGRtqkiRJktQzNtQkSZIkqWdsqEmSJElSz9hQkyRJkqSesaEmSZIkST1jQ02SJEmSesaGmiRJkiT1jA01SZIkSeoZG2qSJEmS1DM21CRJkiSpZ2yoSZIkSVLP2FCTJEmSpJ6xoSZJkiRJPWNDTZIkSZJ6xoaaJEmSJPWMDTVJkiRJ6hkbalpSX375ZfHwww8XRxxxRPH6669XoUuPdDz11FNlOu69994qdDKffPJJccsttxQHHHBAFbL3SvfvYvN1pUjLx1KV+ZW8H8hPtouB7ZQkaaWyoZahUkMFYNWqVWXFigpW18oA819zzTXl8hEPn/teqWDbSW/dMI0KJnFce+21xdVXX13s2LGjCl167IfHHnus3CeLTQeNvfXr1xd33XVX8fXXX1ehS69p30Ulve47hny/5t+fffbZ1TfjUYF+9tlni5tvvnlZ92+K7cu3KR041ikHs2pAvffee2VZW8ryMc39UJdnDGm5qPueYd6MOv91OQ4kScuPul5ap2e4+OKLZ3a9n5ldWrBu3bpy2LRp064NGzbsWr169S6yaFARr+YYb+fOneVyDMS1du3aMg6GNWvWlN/3GeljeyPNW7durb6ZHvKFuLdt21aFLA/2M+lgvFiRX8tpUCkvy1ikhc+pzZs3L3zHPmgqi5EvzD+JSfJ1+/btU9kPTSJNDFGm2f40fMuWLWX4LExS5sn/xRwjk+yHOqQh8qip3GzcuLH8nvI3y3xcCpz7Y3vZrr6fsyVJe6L+zRDX0fSaP4u67ax4R63CnZHLLrusePHFF4sbbrihePDBB4vXXnut/O7pp58uf6Vu47bbbituuumm4qOPPirjeuutt4pBISkGDbfy122+77MDDzyw+PnPf159Kopzzz23mlLfHX744cUdd9xRfSqK/fbbr5oauuqqq4pBRbuc3n///ct9XedHP/pROR/zLxUe05ulyy+/vJoqin333bccs/0c64MTd/n5kksu6dUvbb/5zW+qqeV1yimnFIOLXTl9xhln7FFu+NXy5ZdfLgYNnOLNN98sf7GcZ5deemk1VRR33nln43EiSeon6vRvv/128bvf/a68hiGu+VzPrrvuujJsHthQqxx11FF7VDCOOeaYhYrt999/X47boCCkF3cKCQ0/PPTQQ+W4z6Iiq/lz5plnVlNF8corr1RTP7j11lvLMRXrJv/93/9d/mixVHg8cNbHxajKdtqIe/LJJ6up5UXDtS+Pj6Ip/2ik8VjgCSecUJ7jbNRIkpbbZ599Vo4PPvjgcpziOtWn6+s4NtQqNMrqUBGh9d30fS4aZLl5/5VZ84ETEHc28Pzzz5fjFD8acHeX96X4xSlHeSc8bfDNEuu74oorqk/LI21ctL1zPks0XHm/rO/yRpokSX3CO+I5rl1xE2Ye2FAbgQorre5HH320Clm8eIRoXlGRpdHZtqOUF154oazIxYucdfNS2YvvGeLF/TycIR5NyzuJCF3TN4n05VTijw476nBnJN1+psmTFBXztFfA2AbmZz11DapRfvzjH5fjukd2+RydWjz++OPlOMVdONZdd2eEtKX7hLSN2vZUXUcNpOWkk04qH0/AjTfeuPBdvu9Dvt/brr8tHgkFaUt7TWQfMc0+iv1HmWK/RVlgIO+Yt426ck/cp59++sI+OvXUUxe+S1Emxh1Xder2wyTYRtJ0/fXXd2qkjUt3m3wnjOUIy7H8rI//Jm3LQ55+tiuWYZyfH9Bmu5gmf9kvUV4iLyMtdflAGHmdpjsf4ryLNue0fD9G3pBuBqYlaVYuvPDC8kdpOvJKzzecl7i+ztWPi9W7akrQsUG8UD5phwo5OnYgvsW+2L8U0s4DUryISScpvJwZL9jHi5nr1q0rP6foVCDNQ/Ig7agkfcEzwok7FfuBTgpYPsXLoKQnjadL+uK7LvuE9KTrZMz6iIchFfFH5wqkPzr7iOUpa9ERAwN5RXwsG9vOkG/7OLGevPyyrnQf5PGy7rqXbEkv85MmpPssz7+mfCVN7Ic8/qb5yRvCGVKsm3jqlhkl4oq8D+RRfMe+In7iZT8TxjYzxDojD/jMPKQTkUeERfkLsWy6bvI+4os4Qt38gfnZT7HvIv1puUdTvjbth1EiPcRFWtnGrp2GjEt3m3xnnWn5TbE8y6b5EHlAHG3FfszjH4d1jCsP5Hl6vMc5LJZNw0Pb7YpzR4RH/jFvnA/4nGMZ4o+yFudthnwfx3ojnH2Zn9NIY7of2V7Sw5ghwruWH0nqIj2XcZ7jvMS5KM6j86LblWgvkF6kY6i7uHUVF8t5KCBNFZWoWLEtqbp5I4583qh08F1c2BGVVvIoFfMz5HnHQZjG3yV9YL66+ZvE/Gm60ZRfsZ2ppnVGBSsva3wmnG3rIiqDeX7ymYokJ6s8HVHpqhOV43TbY7vTyiLqtpHtIE11mvIEhDPkRi3TJOJKK4jka+ynPO9jHeybwDZTDslDvsu3PfI1LyN5OHEQ1lRZbYqH+euOhZg/zY+6PBq1H0aJ+KNSz5A3LkeZJN11+R74niHV9fhvwrq6LtO1PET87IvYLsZxHkiPwy7bRQOPsHz/xPmV8BT7hfC8TMR5J98els/XGfsrT1+cg9imdN/FOjmnSNIsce6N8xbj/Fw8D3z0McM7PIN8KQYXvIVnWOnogMc3JsVjH/fcc0/5qNk8v2x/6KGHluOjjz66HI9y//33l2NuP6fY/hNPPLH69AN6LCS/BxWK3R6zYX4e2eFWNf8bKnXfffftFn+X9E2CfTioQC30IBTyz4F5B5WU6tNoUS7SHudw2GGHleNvv/22HLcVHWSQn/HoFePBiap83zI6C3nkkUfKMcjfQeWp+rQ7toVl617MHYWyz2NYp512WtmDXh9QbuIRMv6nH9s2qAw3Pgpx0UUXVVPDfc2+2meffcr8OP7446tv2mM/kCeDim1Ztrsg7SyTn0fojRHPPPNMOc5Naz+QV+B45BHN/LG+JpOkuy7fR5n18T/KpOUh7VWSMY8rIz0Pdtmu6AiKc2z6XjXnV8QjtSHeY817iI3Hp3NdzmkRJ/sx3XeHHHJIOf7mm2/KsSTNyueff15eezhvcf7jdYKur5MsNxtqDeiWnu71N1QdM6QV2q74J8902d9UoZ8X5AmNWMZU/OJ9kzpR4YgKQhvReEh73mM9X331VVkJSrsrpxJDpSGNv0v6umJ9HOS8c9EW/5qBAfFeCo29pRANX/BMNv7rv/5roeOO6CwkrRBSxv/1X/+1nM5RoWQ/EC/vn/DDxbieId99993iyCOPLJfp2iCZJbrrZVsoKwzso67/ioBtIo5o9PCODtv40ksvlZ+bULaPPfbY8t2uth0UpXifjx+O4v2gGHi/L77PTXM/HHfcceW/HomLXtvG2iTp7mqWx/84k5aHHPFEQ+iNN94ox7PcLn6wqNPU8+9yntMkqQvqPvxIyI+wnLeiPs+/4pmnxpoNtTFuv/32spFAhXYSFBQuhnTZvxJQUeDFTDqBeP/992s7WknviHVBxYa8pkLHekCPPb/4xS/K79gH8dI6Fd70/72FNumbRFSauiIvqFRRIeVuRpwolkI0pOKERL5GA41fuCMt5CXpJO9HNR6iQ4Ozzjqr/LU8/Z9tdaISyHrn6aTYRXSY8Je//KUsj9E4bkIegwpu27tRuY0bNy40MuuG3LT3A2WHH7GisUbDs028XdM9iVkd/211LQ910rtPYVbbxTkJr776ajkO/AqNn/70p+U4tZznNElqg/MUT8z8+te/rkKGvbLH+SrvjKnPbKiNwUWTx0iigtUFlRcqY3PVu0wi32a2hV/m33nnnfIf2/Lr8SR3BUbhziN4DI+DiAoEdyLjkcDf//73ZTj/B4xfmFNLkb4uOBFwm50TBRVbGjn5I0azRKOMfUhlOhpY/GIf4vEmyimPqo7qJp95uIPJ8PHHH5d3oOIRpiY8thn/NJ5fsCZtmPQRZZDKKnd5n3vuufIYz8tjnXPOOad8zJJ9csEFF0x0oRj1P/DqzGI/pI01tPmFsmu6u1rO43/S8jBKPOo4y+3ivEDFhTt/ceedH2T4f4vs2/xO83Kf0ySpjXj9Jj8Pc27mFQ+uwR9++GEV2m821FrigtQFlRae/5/XRhryd8nuvvvusnCzTXW/+ob0Ec9xlbdcvHNGhYe7aXFXiDhpJFCh+L//9/8Wv/rVr8rwVNv0TeLkk08ux6yfisw4VK64g0ElaLEVtkmRB1FueRT1/PPPL6cD6YqGHN/n7xOmqKCR//FoV1tUKLds2VJOd3mnqe/4IYHH9bir2LXSTOWXcsEdYt4b69JYYx+w3qbjKu2GODWL/UD5avs4yaTp7mKWx3+TaNwspjzkojxw9wyz3i6eGqFRxl06Hkdlmh91aIil+nBOk6Q2Rr0Dy1Na88SG2hhcnP7+97/XvsPCRTou1CkqIzwX+8ADD1QhP+AiTKW3T3ickAt0XlnKH3uJX8S/+OKLcoy80RKVjKi88ctsU0X0u+++q6Z+wB0ffu2gEksHA2kDORpn/F+MukZFl/R1FQ1F8AhXk4j/b3/7WznO1//pp59WU0OTpqettHOSun9iHfuJPG+qBHIMUFHkHZw0vfF4VGjaFvYhHWcQB3ftxm0z64t54tGx9HFavs8f1Rpn2vkcd6g+++yzcgzWka5n1DqpdLNtVO5vu+22KrRZbP+VV15ZjmkU8Z5glC/GnFdG3d3ouh9S47YlbazVNboWk+62Znn816Ecxv6ftDzk6SNOygT5GcfjLLeL5fixgEYajW4eQeU4r2sULuU5renaaviQ4UOGDxm+p+ioqu7Hwf/93/8tx107R1s2gxOzBlavHnY5TRfDg0ZCGUY3noPKeW0X2mkXzml3n9H18Nq1a8uujfOB7+huuU+i+2cGunSmW2XSn3elTXfKzBP5NKhMlGF8JpzPhCPvapp8IZ+YJ+bn+5g/FV1M5/lOnLGeOl3TF/uDedogbyIuliWdDLHeiIt0R3fdEcZ62d6YlzwhPZQ1hpg3LxsxP+vL90dbsa46kc66Mp7K9xnpIc5IN2WGvBiVr6Qj4ki7Do/yF/stXY7P6Xesk3Xl4ePyJuZnYPlx0u2oy/v0mCE+BuaLMh/5A/Zv5F+6f9P9zjan64j9TnyxvSHWkQ+ERxxp+tvuhybpuY5l4vyYivNeOh9h6TZ1TXddvodYNhV5lpYVwiLv+ZzmY5O0XKfn9kCa2DbipcyjS3lAzJvmJ+vic5of6LJdkXb2cRpHej6KNCPSTXzEEQPzkJ50X3c5p7Hu2Ha+T6XHe11ZSstbmv+GDxk+ZPiQ4fXiHMR5Jq3fxLk7Des7G2oVLqxx4WNgBxNWdyEBhYALU3pB5OIWy48a0gtoH5CeuNgycLGtSyNhUYliu6PSST4RxjjF/MQV+cqyXOwZM4w6UPLKSiC+poOzS/r4nA+jDvpA+uvyKqbTOOKEwHcsQ1liIIz0EReVnYgrHdKTUR7eVVS8mpDX45BW0kwamD/SkZ4IR6W5bjvZV0j3G+N0vzNNvvId6yEeRCWR9abz55rSxBBx5UZtRyrKFelimnTEOSC2o267GRDbnA6RpjS/8+MKzBffp+vHpPuhTj5vDOkyTdsYQ2rSdOfiuxTxRJ6yjnHnp9y47cgH0p+K9YwqDyHiII1N+RHablfEmQ5sUyybDrH/KGesN/8+HYgjtDmnjdqPdeFp/GB7iYshzQvDhwwfMnzI8GZ8n15zGDhv1V1T+mwVfwaJlyRpLvCoNub18tWX9POYIv8+Jt7Z4HHm9PFNHmvkvbRBY2y3jogkSUvDhpokaa5EpxfxP73mTV8aaryfdt11143sHIR5eGfNhpokLT07E5EkzZ2LLrqomtIkeBmfXmz/8Y9/VCF7onOT/fff30aaJC0T76hJknqLxgL/UoB/F8KdHXo/5N928D/Flqob/mmiB0/+Fxm2bdu2278zWUr09nveeeeV09ydzBu+7777btnF9RNPPDGX+SxJK4ENNUlSb0UX/tz9Wb16dflvBvjfX/PYeOAxQrYjtW7duj3+Z9lSIW9/+9vflv8CgPfQQB7zf9T4v4vpv0eRJC09G2qSJEmS1DO+oyZJkiRJPWNDTZIkSZJ6xoaaJEmSJPWMDTVJkiRJ6hkbapIkSZLUMzbUJEmSJKlnbKhJkiRJUs/YUJMkSZKknrGhJkmSJEk9Y0NNkiRJknrGhpokSZIk9YwNNUmSJEnqGRtqkiRJktQzNtQkSZIkqWdsqEmSJElSz9hQkyRJkqSesaEmSZIkST1jQ02SJEmSesaGmiRJkiT1jA01SZIkSeoZG2qSJEmS1DM21CRJkiSpZ2yoSZIkSVLP2FCTJEmSpJ6xoSZJkiRJPWNDTZIkSZJ6xoaaJEmSJPWMDTVJkiRJ6hkbaloSX375ZfHUU08VRxxxRHHvvfdWod188sknxS233FIccMABxeuvv16FaqVg/1I+GCgvkiRJezMbahkaEVQUV61aVTYIaBhMUmmcVjxLgbSSzqbhhBNOKNNPRXoSbPdjjz1WXHPNNcWOHTuq0G7ee++9Mo677rqr+Prrr6tQTapuPzOcffbZ1RzN80iSJPVdXhenHjpvPwTbUEtQSX311VeLK6+8stiwYUMZRsPg2muvLafbmlY8S+WGG24odu7cWaxfv74KKcrPu3btKhtWa9asKdO/du3assHU1YEHHliu46abbqpCujvmmGOKO++8s1i3bl0VosVg327btq36VJT5yj5/8cUXq5DhPBs3biynKQNbtmwpw2bl8MMPLz7++ONyoMxIkiRNgpsMzzzzTPH444+XdZc///nP5ZNd1NHnqrE2SLwGBpXQckht376dWmk5DBosVeho04pnOWzdunUhnblBRb4MX7169a5Bhb4K7WbTpk1lHIwnFekYNDKqEC3GoPHduE/Yz3y/YcOGife5JEnSUor6Zl7npn5OOHXJeeEdtcpRRx1VXHzxxdWnIe7ixB2c77//vhyPM614lsO+++5bTe3puuuuK8c8dvjKK6+U05p/TXeu+LWJX534RerBBx/0DpckSZoL99xzT/kkEE/qpKifE/7SSy9N9ITYcrChVqExVYcKK4/8NX2fm1Y8fZM24j777LNqSitR3kiTJEmaB3Q2x00F3k2rc9ZZZ5VjGmvzwIbaCDzLyjtajz76aBUymWnF0xf77bdfNTXEQcGvFNHZBJX8rr9UPPzww2XDIOJg+oUXXqi+HY31xXKx/kAcES8vkpJOPufarJ9tSnudpHOV2G5OCOznXMzDMpGGppdZiTPdFuLMe8gkPtIa3xFPpImB6cVgG0nD9ddf36mRxran+ZdvY55u1sM0aY58JozlCMt1yUdJkrR3a6ofHHbYYeWYviTmQvUIpBK8U8Z7OWTP5s2bq9DuphXPUuG9L9JaVyzWr1+/8F36zC/P+/LeWrwzxpjPDGx/qukdtQiPd/uIf82aNWVY/i5a3TtqzE8YeZ2uM7Yn5mW+2I5Um/UT78aNG8swBvYn72+xbOxjhjRveK+LfGC+eMcr1pU/Hx1pJS4wf6Q18oswpomTcNJDPIwZIjx/R3KUyE/iZRuJo8vyIM1sY2w7eUOcsd15upmfIdbNNOtMy1iK5dvmoyRJ2ntFfYoh6gypeas/2FDLpDs4hqg8dzGteJZSmuaodFPI0wZKWolnHsJYLtV0EEQ441RU4FNN80blPtZJ+gira1ywLJX7VFT6U13WT3yE5/uSz4SnDfJosORxEMaQikZKmpexP/J8jP2RNlxAHhBOXG1FfhIX+cCQN7BHYZ0sk58MI9502yNP033CNqbL8j1Dqks+SpKkvVv82J7XGxD1tS51peXko4+ZU045hZpfsXXr1oUOQB566KE9HkEbZ1rxLBceK+MRs4MOOqjsmn9QoMtt4fGzwP8146VMtjV18sknl2Oe/23zaBpxDCrv1af24jG9wYG4W7pSb7/99m6PJNIpRj5vl/VHpxqXXnppOQ5xK/3bb78txzj00EPL8dFHH12ORyENgwZPcfDBB1chzeLR04suumi3Tj4OOeSQcvzNN9+U4y5YP3iu+/TTTy/zto377ruvzM+8s5EzzjijHNM1bo50B8rOuI5KuuSjJEnau/3+978vxzfeeONCHZBXKKiDx+fjjjuuHPedDbUG5557bvk/pQYt7/LzI488Uo67mlY8S40009CMgYLNtqTeeeed8t27eC8phlNPPbWaoyg+/PDDaqrZW2+9VQ6I95TosWeUJ598sjj22GPLd6maOmi58MILy8bPJZdcUjbo4l2o/N2rSdbfBvlF3jGmwRrvcdXhf8R99dVXZQ9FcTK57LLLqm9njxPWRx99VDZYuzTWaAjzA0ReBjg5xveL1SUfJUnS3o36wrZt28o6DXVA3mv/7W9/W/7gSx0HcROl72yojXH77beXlX0aJIsxrXj6hoMgbdDlQ363rQkdaVD5poJ/2mmnLTRsm5CXoFHV1KCg0UPjY+PGjeXdvfPOO6/swIJ15bquvy0aFnTwcdJJJxXvv//+yA5losMMeiTirtkdd9xRfbM0uLNFAz0aazSE45enUcjfun0fwzR0yUdJkrR3o/7Jj/DUQ/ghnB/pP/jgg/I7Gmnz0gu7DbUxqLyeeOKJCw2DSU0rnr7hjkmbxxtHobHFXbhf//rXZUOBxkres2TunHPOKTZv3lw2KC644ILGNJDv3K2igUzjizHrShtrk6y/DRqQRx55ZHnn8c033yzT0XRioEHE44cMH3/8cXHVVVctPMq4lNLGGvglalxj7eWXX66mZqNLPkqSJOX4MTyeluKVmXlhQ62l/L2mSU0rnj6IfyR42223leMc3bFzYIxCJZxH52hEcau6Cxoz0fji0ca8scbjgxFGWvk1ZcuWLeXn+++/vxwvZv3j3H333WVDkvXSABqFxiKNNBohy4208itU3FUc1Vgjzfl7gKnF/rsAdMlHSZKkFHVB+lqgLsGP/PP0Y68NtTGoyP/9738vGwU5GiIMbYyKpy++++67aqqd6FCDhg4NULYRHBDky5/+9Kc9/it87m9/+1s5zht0n376aTU11HTHjMo7t7BpLNQ1GOnwJJU3lBe7/lHiTtMXX3xRjpGvh3jJN04e3JpP1/P5559XU0OTpGGcUXGSt2ljra7RdeWVV5ZjvqdhHNvHmMbnNO5Mts3HVNOxafiQ4UOGDxk+ZPiQ4UOGD81LeBPqB/yYTz2RO2l9rofX2qXS6qprcrry3FF1TU/X4WvWrKnt+j26TmdgOnSNpy/oIj26iGfYunVr9c1oadf96UAepN28E/+gQVV+l3aJyjyxDOHk29q1axfSQr4NGgtlXjIQL+FpN/iEp3FEd+/ERRjjPCz2Wdf1x7zp+hHzs42xrgiL8kA8hMU28JlwRBjrJox4+J4wBvKZfULczEMYcaWiG3viIq3jpGWYOOuWiS7/0/kIi21EpCcfCI/5GMf+T/MoF8umuuQjmo5Nw4cMHzJ8yPAhw4cMHzJ8aF7C61C/o25AXYGhbb22b2yoVagIR8WPgUomYU0VXiqaVOIZ0kpn13j6gIIc6c2HcQcCKPxpZZ1KdL69aZwxRNxU/CPPYlkGwsjfONjy5RkQDYB0YH4Gvsv3R75Ni1l/etLIw9PGCfFE447yQBjjwDqYh/A0jUyTDtI4al114aS5Sd38DKQ3NG1zDCnmjfSTXrYtjotR6c7Fd6ku+YimY9PwIcOHDB8yfMjwIcOHDB+al/Bc1CWoO1BnGDVv363iz2BjJGnZ0bU/PC1JkqS9ne+oSeqVtVWPk5IkSXszG2qSeuWiiy6qpiRJkvZeNtQkLQt6uzzggAPK3pjoxZH/bbdmzZri8ssvr+aQJEnae9lQk7Qs9tlnn/KfwL/00kvl445PPvlk+Q+t/V9pkiRJRWFnIpIkSZLUM95RkyRJkqSesaEmSZIkST1jQ02SJEmSesaGmiRJkiT1jA01SZIkSeoZG2qSJEmS1DM21CRJkiSpZ2yoSZIkSVLP2FCTJEmSpJ6xoSZJkiRJPWNDTZIkSZJ6xoaaJEmSJPWMDTVJkiRJ6hkbapIkSZLUMzbUJEmSJKlnbKhJkiRJUs/YUJMkSZKknrGhJkmSJEk9Y0NNkiRJknrGhpokSZIk9YwNNUmSJEnqGRtqkiRJktQzNtQkSZIkqWdsqEmSJElSz9hQkyRJkqSesaEmSZIkST1jQ02SJEmSesaGmiRJkiT1jA01SZIkSeoZG2qaa19++WXx8MMPF0cccUTx+uuvV6HdfPLJJ8W9995bHHDAARPHoe7I81WrVpX7L6T7k++XylNPPVWcffbZS7rOuu2XJEkKNtQyVJ6oJFKBouJ+yy23lJXHxbrmmmvKOPsoKox1QzRcmuZZyoptjrRde+21xdVXX13s2LGjCu3mvffeKx577LHixhtvLL7++usqVE3qykA+0OChvL/wwgvVUu3QYGZf3HzzzRPvz65YJ2lleOmll6pQSZLUR1y3qZtffPHFVUg96nfME3WTpf4BeGp2acG6devKYdOmTbs2bNiwa/Xq1bvIovXr11dzTGbr1q1lPH3O7p07d5bbGekkzTnmie/Jn0FluvpmebHPSNO2bduqkO6mEcfegjxKywHlImzfvr08fuLYWbt2bRnWxcaNG8tliWepsK6lXqckSWqHOmdav6De1iTqKWvWrCnnY8xnhsXW6Zead9QqPPp02WWXFS+++GJxww03FA8++GDx2muvld89/fTTZQt+Eix33XXXVZ/668ADDyx+/vOfV5+K4txzz62mfvDKK68UgwOkGBwAZf4cfvjh1Tfam5xyyinF4MRXTh922GFl2QnHHHNMefy8/fbbxaCRVo5PP/30TsfPfvvtV01JkiQVZZ2T+sUf//jHKqTZL3/5y2LLli3Fxx9/XNbrGW/evLn8jjo9df55YUOtctRRR+1xG5VKZ1RIv//++3Lc1aDlXvz+97+vPvXbvvvuW03tiULN42E0XqmoS6NwQuXkSMOeR0opO5IkSYvxT//0T9VUPR55vOKKK/ao01911VXFhg0byunHH3+8HM8DG2oVGmV1eD+NOwNN34/Cs7BnnXVW7d2peZI20ibJB+2duNN20003ldO8/2VHLZIkaTHGPc1FPZVGWZ1LL720mpofNtRGoIFCpwaPPvpoFdIeldJnnnmm+Pd///cqZD7R2LzvvvuKjz76qHUjjW1PX+Ckcwl+4UjR0QSNP74Hy5xwwgnlZ8b5/IHlYj4G4mjq7IU4WXfMO8mLpDyyx7bQsQxxMB61zlS67hjSxkr6PdOhTbpJV9o7Iunh5VrSF53g1GE50h/bUzdM0+WXX15NFcWTTz5ZTbXv3ZH5Ir1N2xXbTlyxDeyzpjKUv2BMXr/77rvVt7tru/8pl8wX+5FtimUIy9PSdvslSdJ0HX/88dXUHKjeVVOCzg/oJIHs2bx5cxXaHp0r8OJi2okCcfU9u9NOIkAe0BlE2lnEOFu2bClf9IxOORjzmSHyg45K0o5LWIaXPXlJlDFh5F+O+fgu9gkvlqbxxDoR28I2IO0spa7DiFhvGgfLkO40D6LTCeYfh/SxLPOzPXX5SMcZafxt0k1Y+kItcZAexgwRTn6lSE9sD9OIcs4QYW1EftXlZS5e4o08Yz0sF+F5HHwmvO12MQ/fRfmKPCQsz3PmIZzt5rvIS+bP08J3kV8RT8wb2wLKY+yjSC/bxnTESzyRv+O2X5IkNcuvw21FPTKt6/WdDbVMVPLSISrNbVFpyyuTEVefpdselcwu204FlGXyA6CuckvFN9aV51VUYNOGbqQtr9RGZZrv0vVGxTkNizjqDu7Y3nR+KuB16ySMoQ3yJNIXlf0UjYC0h80u6aZBQHjakECciIgrFY2yvEfPSRoMkV9tlol5GVJRLvI4Irxpu9IySRkhLM+buv0ZZSWfF3Xb02X/xz4i/vTHnWgY8l1+LDVtvyRJasa1s+5aPg7L5HWjvvPRxwwdZQzypRhUZhc6EnnooYdaP57E40w88sRjUPMsngFm23nUqw3+B9ag0r9HZyMnn3xyOeY9pXhkLO0pMM8rHgdD2oHL/fffX44vvPDCchyI58QTT6w+/YB0DCrIxcEHH1yFdHfooYeW46OPProcT4J8jPe0yJ8UjzjS0Ub6DmOXdEfviBdddNFu+XnIIYeU42+++aYch+jlKO80ZnDSqqb6pWm70h4k99lnnzK/2jzG8Oyzz5b5Te+uuTPOOKOa+sEk+5+ymD4bz+PC9JAKjiVJkrT0qHP9/e9/Lx544IEqZD7YUGtA5Zle6zZUPcQ88sgj5XgU3kPhfbbbb7+9CplfVC63bNlSTrdtrL3zzjvlO33x7k8Mp556ajVHUXz44YfVVDd0p4pxL5GGO++8s/jqq6/K+anY09Cuq6CPQhmg0c6YBiYNHd6P64r3tGhM3HPPPbu928Q7W7/61a+qT0PTSHcTfkCoM+vu8OkWF/HDxzSRT+QX+YZ4V6zun1f/6U9/KsfR4BtnWvv/zDPPrKaGFwpJkrR0uIZTl/rzn/+82w/A88CG2hg0uqhk0wAZ5+677y7/b9RBBx20R2MlxOd5qLBR4U0ba1RS04ZGnbVr15aV26Zhkq79J82r6AiCnjdpjNxxxx3VN+2xvXRUcdJJJxXvv//+RB3LcFLgrhp3c2677bYyjLSRp/kdQkwj3XWID2+88UY5Dp9++mk5nkVDivyLY2eWL+9Gxxx/+ctfyv8HWLctdY23caa1/yVJ0vK49tpry7rUPP57KRtqY1DJ4nEmGmvj8NgaFcS6IcRnHtmaB2ljjUYoPdiNaqwxz7jG3FLg7gf7g4E7OjyO1vZOSuAO6ZFHHlneKXzzzTfLuzaT/nuCuKtG44yGGI/hcbc2r8RPI91N+NGBhjR39qLxy5g0bdy4cSb/eiF93PNf//Vfq6npoazxA8JvfvOb4rnnnivvBHMHbBqmuf8D/69RkiQtDZ4IO//888v67DyyodZSmx1MRY7HJeuGEJ9nUSmeFbZ9+/btZUNjVGMtHkuMu0Y57nrQSOkq/QUk3rMahwOTxk48EjcJ7pByF4zK/2LvisRdNfz2t78tG0t1/+djGuluQhq4I8QjkDwCwJ1dxps2bZrJ+tjXbCd4D24WZZ4GL2WSX8rGxR8/mKT/JmCUae3/OFZoJC+2HEmSpHaoU1E3mNdGGmyojcGv6rx8WFeppuHBsFJ899131dSeKOj8w+torPEoWP6/oeIfCXKHhoMivqeiSj7xjlDbd8xy8a7grbfe2njHLtLPeqlg8+5SOu/nn39eTQ01xRNefvnlcvzFF1+UY+QNzXFxpNK7atylzRsW00p3E+Lnv/Vzd4i7dTyKyviGG26o5pge8onGGdtDA2VWL+9SJvHZZ5+VY5A/aR7FdLzrR/7nZTd8++231dRk+z/ex0vRmMT1119fjttoOrcYPmT4kOFDhg8ZPmT40LyHN2n7g3/0rVBXf6cOMDf/w3RQWdPAoAJdDnSVTZfqoMvtNWvW7NF9PKI7boa0C/AmMW9f0XU5XZZGOtMuxgPz0GV6zMNAF/FpN/rRZXw+kLfpfNHVOkMazjrIc8KJK6Trjn1CvtPlOXETzvfR1Xketm7duoXu6SPu6KY+7UI/3e7IjygXLE9YzMvnWF9bzM+ydWUKbdOd5gdpSkW38sQVZRmxPcRB3DGQjwzE2UZa9klbuhz7kjhjO1hnU7xsW8wTmLcuHHXbFWEMbBcDy0feRP6FyEviiG1nHGUuwok/8ivCWJaw2DY+E46mPGE/M3+ahtC0nWlcTAfDhwwfMnzI8CHDhwwfmvfwUdLrflrHScW1nutsPkT9IK179pkNtQoVvKiAMbAjCWsqBFTEqNwxNFVEUxFvH1HZjPTlQ3rg1H0fQ1RYQUMiDgQGKqJpPnKgpMsyENaUjkA+c/DFfmIZDrQ4+NLGD+FR+SYtsR1Ms3zMm54k0gFpo4G4ohFHuSCMcVeki/U3aZPupjQ3hce+Ydm672Mg/vx/rOXqlssH8oy8aToJdk3/qHDE/iD9TLPf2A7CSEt+fJIfkceMmTfC2Mcxf5f9H2lkPxFOWvLlQtP2BNbLcgxp2g0fMnzI8CHDhwwfMnxo3sPrNF07uU6n4ho9auBaPS9W8WeQaElLgB4E6clxFo8bjsOtfh4viEdU//d//3e3R/1effXV8tG9usf3NBqdsvBvKAYXjN3eSZUkSZqUDTVpifA+E70I8o7fpO/qTSrW/dFHH43s0IIu7m2odWdDTZIkTZudiUgzRC+V/BNm0BsmnawsdSMN/A8ROvbIOyZJkdYrr7yy+iRJkqTl5B01aUbiLktYvXr12Dtas8Ijl3fddVc5vX79+uK4444rp8MzzzxT/kPsWXTTvzeg96gbb7yx/NcK9Ba5HI1xSZK0sthQk2aExw35n3M86kjjiIbSclbgaTjef//9ZUOCu2ugYUEDjffW5vE/9vcB/48ut2nTpmV5D1GSJK0cNtQkSZIkqWd8R02SJEmSesaGmiRJkiT1jA01SZIkSeoZG2qSJEmS1DM21CRJkiSpZ2yoSZIkSVLP2FCTJEmSpJ6xoSZJkiRJPWNDTZIkSZJ6xoaaJEmSJPWMDTVJkiRJ6hkbapIkSZLUMzbUJEmSJKlnbKhJkiRJUs/YUJMkSdL/v717fbWjOh84PvkD1EZ9JVXEKCgVlBoV1BQU9FgVUdTGSxFB0UZFqNpEo1KK18TqC/ESxUAQ8WhVBPkdr6DgsVKvHFHwhUZEiq+i1voHnN/5zsxzurKc2Zezd5LZOd8PTGb22jNr1qyZnbOevWbWltQxBmqSJEmS1DEGapIkSZLUMQZqkiRJktQxBmqSJEmS1DEGapIkSZLUMQZqkiRJktQxBmqSJEmS1DEGapIkSZLUMQZqkiRJktQxBmqSJEmS1DEGapIkSZLUMQZqkiRJktQxBmqSJEmS1DEGapLG4uuvvy4OP/zwcvr+++/r1L3Ts88+W5x55pnF5s2b65ThUD/kQV0tNQ9JkrR3M1DL0Gii8bRixYpi//33L2677bYlNzrJi3zy6dNPP63X6K533323uPbaaxfrgun4448v64MGOcfQxQYmZUvPIRMN4kFxzLFdTBo/rq+8nmOK66ptHQKkPYXri2uE6fXXX69Th8P/J1u3bi3z2L59e50qSZL64e8wbdGLL764TmlGO5V1ou0wsV+MzmvR1NRUOW3atGl+3bp18ytXrpynitauXVuvMbgdO3Ysbp9O5N9llJsyUlbqYHZ2tn5nfn6hUVnWTRwXy11FuaPOV61aVaf2xvHFNkzpsU+6pVzDuwPXUNT3xo0b69SdrV69unyf67Ir5yTKPcpnYBx5SJK0HORt0F7t6WgD0v5jPea8Zupqe6iNgVptenq6nFJzc3OLJ5YLZBhcTJPWACNIi0ZxXhcp6oKLnkCuy+LcMc3MzNSp7aLhzDRocDcJIgDtIq65qPOmIIzPIP8pb9mypU7phrhWRvmMjyMPSZKWE9pz/O3sFajRls3bsbQjor3Rq43bNd76WDvqqKN+0Y16zDHHFAsXQrn8888/l/NBcGvTE088UVx55ZV1ymS47LLLio8++qhYCMB6dikfdthhxbZt28ru567jWPDQQw+V8zacs/vuu29xfbrI9xYbN26sl7rngAMOqJd+idsWTj311OLRRx8trrnmmjpVkiQtV0ceeWS91Iy2w1VXXfWLdiztiGjj0YadFAZqNYKyJjTgFyLz1veb3HHHHeWzJyeeeOLiM11dx/NA8czNzTffXM57OeWUU4rTTjutftVdcSwcG8fY5oUXXijOOOOM4tBDD61T9g48n/fcc8/VryZHGqT1uw9dkiQtD3QW9EJ7ve3L3UsvvbRemhwGaj3QyCXgevLJJ+uU/gjKHnvssXKZbe+5555i1apVIw1Ksjs8/PDD5Zyy9vsQhPXr19dLFQIhBnro9eAmdRAj5jHxOrZJ13388cfLwUsiL5ZfeeWV+t3BcSzRKxrH2OT+++8vrr/++vpVO8qbDlbCgDP5MRJkcL55jzrhmogHWtmubXAT1o31mqZ0EI3Ik33wHnMGp0ivMcp1ySWX1K+KxXyivKxLOeNYmMiT8ueo+zgf7Iv1eJ2i/DEYyyjY1wUXXFC8/fbb5X4GQX2w76gPjim/XpZ6Xtgu1mPiPHzyySf1uzsb5Lz0M8x5kSRJwznuuOPqpQlQ3wKpBM/F8PwV1bPUZ2PIg3tguYeWfJi4Z7arooxLfcgyHtyk3sCzR+RFWvoMDvWZDg7B+lHX8VxYPLsT9xDHM3GkDTOYBOsjysZEXrk4T4h9x+tUPMNHeVlmirLHcXPeGRQj9hfHS76xLlNejrjnOs076il/Xo73eG6L91lGr3LHPnOsSz6UGVFPpEW+iPSoe8oe5zZQh+nxDSO2IX/yScs0CNZNn2OjfFF3cQ0t9bxE3ul5ibpmYjkMe17ivTQPDHpeJElajtr+rvZDm4Btoz0zCQzUMtEoSicaaaOIxid55Y2yrohjXWr5ouGeXvxRl/mHKW14RsOYRmksR12l2hq1vaR5RMO96VzyXjToYz9N/wGwbZ4ejXO2SY+9bX+8Jj3/AiAC0bQhTn2QlufNtqTldRHr5prSqW/S8uPhNenp/tgPx5OK48417auf2Cb2nQY6g6Du8rpIr7E0r2HOSxxj07UQZU33O+x5Yb18/WHOiyRJy1HT38lBsM2kjfrorY8Znr1aqJdiZmZm8ZY5bmXMb28bBrctPf300+UyA1bsjRYay8VCo7Y46KCD6pT+TjjhhMXbLLmnOJbJa6FBXS6Py0033VTOOZfcnha4Be7HH38sz1Ev3I7GtldccUWdUmEwDI4Dr776ajlHDJKR3w8dz8D99NNP5Rzc0rYQlJXL6eAa1EdTPRx88MHl/Oijjy7nS7HPPvuU52vQ7n8GmUlvDaSc/epsWHH+2VfcFtsPtzdSdxdeeGGdUuFzDM7t+++/Xy5jmPPCc4tsn59zND2fuSfOiyRJ6o/23gcffFA88sgjdcpkMFBrcdZZZxWvvfba4ggxjOI4CvIj8KPhlwYKXZM2VIdx9913Fz/88EPZ2Ob4CGybGriD+PDDD8sJBDE84zNqgEtQQQAIGuDhrrvuKqd+vvjii3LOM1/x3FBMMQjLxx9/XM6HReO8TRq4Ba4lvkxgTjBDAJU/L9YP54nzxXkDAQ911PQjzgRBBA8cOwFUPPvFQB/jRPA0NzdX7mvQYO3zzz8v55zb/LyEWGdYL730Ujn/9a9/Xc772d3nRZIk9cffZNqkL7/8cmO7qssM1Pq48847y4Zj9HiM4vzzzy/nwwz1v7tEz81Sgw3EQAqMnrjffvsNFAC14ZsPGrkbNmwofve73y0GzKOI8hD08aGlvHy7cvrpp5fpg6CnlcZ400RgvxQ0ziOI5LhTX331VXn9RQ9RoPwMOMHIop999tlQA96kGLSFQSv+7//+r7j88ssXe5FTlO/LL78sh/knYDj77LPLbfKyjgM9qwwiEsHaEUccMdAgGjt27Gg8J0z5oDeDWkpwtDvPiyRJ6u+6664r24B5W2oSGKj1QeTNrW00HEdF8EI+wwz1v7tcdNFF5ZzGKY3NYdF7QLDBRHDB0KiD9kTk6EFbs2ZN8be//a0Mfgj+qLtREZBR//Rqbt26tfj73/9e3HLLLUN9u/LPf/6zXhqvF198sSzbn//858UeV3ol+YIgbpsNBC4EMATV3NZH78uw1xTnmECY0S7ZN71j9AS1oY7YD+UhaGbOOdrVwRrnimH6+wVr6e2Ne8qeOC+SJKkdbcrzzjuvbEtOIgO1AY3jBL/zzjtj6RnaFfhx7ghGH3zwwXLeDz0HgQ8CQVrcsrVUNHZ5Fox6GncDlWCDwAzcysp+Bv1R8nj2jm2aggYa2KM8x0iD/t577y2X6d3k1r3nn3++7MHL64H1CGBoxC+1C5/bP+mx4humfsEExxXBO71r7Hd6erp83esnD0ZBmejFoy56BWuHHHJIOf/rX//a+AUD27QNu99P9GI988wz5byf3X1eJElSO9qm/C2d1CANBmp90NDj9rimH8/j9iSmFD0MTQ1D8nnjjTeKG2+8sU7pFhqW3LsLfvutX+OWi//3v/99ucyx0UDl2Zq0sfzvf/+7Xqo0NaRz//rXv8p5/hzfN998Uy9V+uWVbx8iMIueobYGNb2CKQKUeMaQoIH6iTJw/DxPddJJJ5Wvl4L86EXi2TzqkVv2WG4KVrmO8N1335Vz5Mfbq364RtkXvv3223IOtkm3S5fpgUyN6z+9XuXk3NCjmgZr+XUZvaTxTFv622ks83tsw9zamopnLNuCc6TPdI56XjDseQlN/xfB9IrpFdMrpldMr5he6Vp6m7b2XY52Kpra7/xNH+XL9d1qoUGoBQuNvXJiqOyFRnyZxlDYq1atWhy6PRXDfzOlQ2YvNObLtIXGZbkd7/H7TbyO30XqMspLPXAMHAu/7xXDmzPnNUObMk/FNhwndci2C4HQYh1RB7FN/J4V20RdhxienIn9kBd5xvD/nA/yzbfLxdDneTkR5crz4Pji/DGl5xWsH8eZT+QZWC/S82H44zjYT9QryJeJcsfEtpQhL0fkEeuzb9KibLwmPUQ66zCRXwwlz8T5YKJM1DVpcf5AXqQxjzJHWlo2liPPQa/1yIeJ/aV1EkiPdZg4hvS8spy+n07pZ3cp5yX2HXXNMTLnOkzTyTvyGOS8pNca64RhzktI673tfJhuuukV0yumV0yvdC29l/TvZN6OC/G3m7+Z+RR/TyehTQ4DtRoNomhQMXEiSWu7CGho0VhjSht2nPi4COIiaQr0uozj4YNA2eM4ok5oaKbHGzjuaLyyXnzgWKZeow7S/GKKxmtg3TgXNGI5B0yksY9eH670Q59O6X8A5JU3dvNjTacUx862UT7Kkzb6OZZ8e6Z+5Yr/VNom9hPXImWI8qb753oljXkq6jM9D4j1SWeZfCPoIf84zxwTr+OYmdJzjKb6y89rqq0+mNLtep0X3gtcExEoMeXlW+p5AdvGtc2cOoo06j7qaZjzEvtJp9jnoOcl8Jr9MaXvmV4xvWJ6xfSK6RXTK11Lb9L29zptCyD+hvaaaCNMihX8s1BoSXsQt/Rxu1vcPvnee++V88AzdYymyfNPkiRJ2vsZqEl7GM+MMdpj/HZcE9ZhUAsDNUmSpOXBwUSkPezcc88tB8voNdAEQRo/CC1JkqTlwR41aQ/jd7MYtXDlypXlaIqHHnpo/U41qiCjCd50000TPbysJEmShmOgJnUAz6ht27at/MHxsHr16vK5NH5SgJ8HkCRJ0vJhoCZJkiRJHeMzapIkSZLUMQZqkiRJktQxBmqSJEmS1DEGapIkSZLUMQZqkiRJktQxBmqSJEmS1DEGapIkSZLUMQZqkiRJktQxBmqSJEmS1DEGapIkSZLUMQZqkiRJktQxBmqSJEmS1DEGapIkSZLUMQZqkiRJktQxBmqSJEmS1DEGapIkSZLUMQZqkiRJktQxBmqSJEmS1DEGapIkSZLUMQZqkiRJktQxBmqSJEmS1DEGapIkSZLUMQZqkiRJktQxBmqSJEmS1DEGapIkSZLUMQZqkiRJktQxBmqSJEmS1DEGapIkSZLUMQZqkiRJktQxExOorVixYqDpzDPPLDZv3lx8//339Zb9Pf7448X+++9fv2pH3k37zKfjjz++uPbaa4uvv/663rK3fvlyPExN78WUa1qHPNr0K8O7775br1mUy03rkEfbe/2mJp9++mlx8cUXl+eGdZhTr+yD88t7Ic8vn9imrQ7Jt9/1wjXStC3ToMdM/dx22207XReDbBva1h0kD9ZZqkE/H037ZTvOY67peiNNkiSpn2effbY4/PDD61f90c5jG9qObEe7o1e7uDPmJ8js7Ow8RU4n7NixY356enp+5cqVi+mrV68u0wexatWqchvy6Gf79u2L68dEuTAzM1PuN9Ipz9zcXPleP5Q13ZZp7dq1Ox1D0/GzzzbsmzIw9VovDFKGFO+xzrp1635xnOwvzWdqaqp+p0I9btq0afH9HOeCdMoTeVMOtonznOcZxxt5MrF+ijyi3OnU79xzzvO6yeu07frMj5Up39+WLVt2ep/jYLsmsS7z1LDXx6CG+XxQhryeeN10DXF8vJeeY0mSpDa0M9J2+CBoL0X7kG03btw4Me2OiQrUQOM8Tk5+gqJxHxMBRD9pQJE3/NvkjW4umkDjM32PC2JQvfINXFzpOnkgkqJxzIXZlE+bQcoALnAa2L3yTvNpq9sIOlJRbtKbgpUIyJry7HV9BMqcB2scSxvW51oaJO9e65BH+l5ed+l7bfUVWKfJIGUcxjg+H722Zd1e17AkSRJtpryNw9RL/uX8JLY39qpn1E4//fR6qfLGG2/US+2eeuqpeqkoXn/99YFvV2xz2GGHFQuN/vpVUSwEGiPnmbrxxhuLhSClflUU9913X730S2+++WZxwgknFKecckqdMh50HV911VXFa6+9tuS84za3a665plgIZsvl8MILLxQ//vhj/eqXjjnmmOLRRx+tXy3Nb3/7253O00cffdR6e+AzzzxTnHPOOfWrpbv00kvrpcqrr75aL3XXUj8fC/8Z1ksVtuW2T0mSpGE9/PDD5TxtA/dz2WWXFc8991y5PD09Xaxfv75cniR79WAi/U4mjc44gWHr1q310vjst99+9dLoDjjggJ2ezSKgIXBqcvvtt/+iwTwqGtvvvPNO8eGHH5ZlWYq8sX/GGWfUS5WffvqpXiqKtWvXNgYH1MGvfvWr+tXS3HTTTfVShYAsxz3NHOtZZ51Vp4zPxx9/XC910yifj5NOOqnYsmVL/apyzz33tF6rkiRJbWg/0EHw9NNP1ym98fwZXxJj3bp1O7WdJ8leFajRE5PKG+I51s8bk4899li9tDQMnEDvTODiWGpA0+bmm2+ulyrbtm2rl/6H3iEelqT3aRxi8I5DDjlk5N6s/Dzl+bGPQF3S88UHLh/wY9RGP8eTBvOc+3wf9EpedNFF9avxOu644+qlbhr180FvKdd/isFgmgYXkSRJ6mffffetl9rRlkvvOMvbzZNkrwjU+OafkeluvfXW8jW30s3MzPSNnp944oniwgsv3Kkx2auHqhcuildeeaW44IILytcEAPRmjRrUNOH2yqmpqfpVdVtZ3vili/iKK66oX42GvLlVkVtJqa9RUEe9btcE5y29LZFzsmHDhuKII45oDNhGkQcSeRD5wAMPjHzMIe+xu/LKK+ulbhrH54PrPz+Xp5566ljPoSRJUqAtR3sDtMc3bty4OMI0I7PTFp0UEx+oUekEZn/605/Kk0Kj8MUXX+x7qxqNTW65o7crf3aoqYeqlzVr1hQHHnhgcfbZZ5fPpFEeGqi78l7YPAgjUA0ErvREjaOb97333isb1uRH/XK/71IQTHKuqKP48PTy5JNP/uLZNbaLgG3U3rSQB0v3339/vVQFqJSBwHgUBCUEmNEbxX8a3Cs9ar670jg/H9yqkPZcch4dil+SJO0Kb7/9dr1UlGM1PPLII8Xc3FzZFqE9S1t0UoK1iQ/U5ufnix07dpQN3zgBxx57bBkx97rFisYmt2aBATHSoGCYQRMwOztbloNePAJFgrVLLrmk/A2pXXUhEISlZaZhHb0UPEd09dVXl8ujeuutt+qlylIHhaAHkDriPA2CWzbff//98luQHA196nccg1MQLPEcXODcxTn7xz/+UZx33nnl8lIRnBLE04tIHXA84wii08BnVxjn54Ngj/800zJTB9wGKUmSNE60McJpp51WtkNoV9577711alH88Y9/rJe6ba+49ZETQMM3jaA5SW23WNHIJD19fusvf/lLvVRZyqAi9OLRexCNWgIKovZRfmy4lzQYY188TwUGgBjXbXUMSPLyyy/XryoMCrHUAJTzNOgAJ5zXu+++uwye8lsUQTnGUbeXX355vVSJkQ6px1EDKoJTph9++KG8NjiecfSk8Q3RrrIrPh/kld8GTA/j888/X7+SJEkaHe3GJr/5zW/qpardvKva5+O0Vw0mQmMwfx4mgpcUjcx8oJH8OaSlDipCcJH20KBpNMFxyMtMUJXesjYu9KjkwRXfRCx1UIh+z3xxm2CaN4ENjXw+eHndcmvmqAiw0x4jAjTKkO9rb9TUK7mrPh9NQXr6rZckSdKo2u46Ouigg+qlybFXBWrIh3r/9ttv66UKPQU0Mrl1Lh4sjNvTUgR5S30O6uSTT66XKsPcJjYMApi0p4lAhtvJdsXoNjxvlwYu1A+/pdbUY9lPU48Sz9il9cTtdTm245w03Q45qrzHiFsV//CHP9Sv9k70iuY/HbGrPx/5dSRJkjRObXcdjeOOpt1trwvU8t+mSod6Bz1sfLMft6SlE8+apYYdNCF8/vnn9VJlV14Y+UAPXJy7an88jJn2PNEbcscdd9SvhsNtgCkG8UjLTaDUFgTyo99hXL9RR49R+g0Mx5ne+rc7pHXbKwAmwBrH0P4PPfRQvfQ/u+PzwXWU9nxLkiSNSzrgXj7WQuqoo46ql7prrwrU6JFJe2JoeJ9++un1q6rx26vHqWnQhKXcv8qw5qk8mBqnvMw33HBDvTR+3E7JiJppQEPvy6iDQrB93k1Njw0jAzYFLF988UU5Z5t+t1EOKp5zDE2/wdcreBqH9JlDguC2nlgCrFF7+wj2uL75Yeowrs9H+oPlTahrbi/Nz3kbeu4YmIcp7cUzvWJ6xfSK6RXTK6ZXTK9MSvqoaPtHe4W2SrTf0sdquCNtnI8J7TLzE2R2dnaeIqfT9u3by/dmZmbmV69evZi+0Aicn5ubK98Dy/F+mp7bsmXLYh6RD/sN7G/h5O+0zvT0dPke+a5du7bxvX527NgxPzU1tdO25EV6P+yD9SnXKAYtw8aNG3dah4nt0nrlfOTrxLkCebJO7I952LRp0+I2HFNah5wL0vLzC/InPbZlIq8U63BMXAtpeUB+bEMe+TE3XXuUP9W0TnrtDGLhP47FbTnOdB+Uj3pqu6YGKSPHldZvlI+8x/H5YJk0ypnXby7Km5+jXLo/pmB6xfSK6RXTK6ZXTK+YXpmU9Da0YfJ2dlsbgrZMtAlpWyHaWLR38nZeV/WvlY5IT0rbFA1EGpPpCWhqwDKl2taJiQshgop+E+sRzPRrqIZ++fZryHKsHDvHvVT9yhCN8X7rpYHGMFN6jCwTjHBczNN9Erywj7xu07yaJspPvnk6ead4HR/okG+TT/2uHaaov0Hkx8zUdtwhXXeYifzayp/qd4xtn49+1y7HOsg6XN9MLAfTK6ZXTK+YXjG9YnrF9MqkpDfJ2xf51NSWoI1D24n8WYe2FOtNSpCGFfyzUHhJkiRJUkfsdYOJSJIkSdKkM1CTJEmSpI4xUJMkSZKkjjFQkyRJkqSOMVCTJEmSpI4xUJMkSZKkjjFQkyRJkqSOMVCTJEmSpI4xUJMkSZKkjjFQkyRJkqSOMVCTJEmSpI4xUJMkSZKkjjFQkyRJkqSOMVCTJEmSpI4xUJMkSZKkjjFQkyRJkqSOMVCTJEmSpI4xUJMkSZKkjjFQkyRJkqSOMVCTJEmSpI4xUJMkSZKkjjFQkyRJkqSOMVCTJEmSpI4xUJMkSZKkjjFQkyRJkqSOMVCTJEmSpI4xUJMkSZKkjjFQkyRJkqSOMVCTJEmSpI4xUJMkSZKkjjFQkyRJkqSOMVCTJEmSpI4xUJMkSZKkjjFQkyRJkqSOMVBTp73yyivF/vvvX1x88cV1yuT5+uuvi82bN5fH8e6779apkiRJUjsDtT6uvfbaYsWKFfWr4Xz//ffF448/Xhx++OF1SjcRRHCMTVMEFm3rkK52n376abF169Ziw4YNxY8//linSpIkaVh8+X3bbbcN/QU+7Vna9LTJJ6n9umJ+Qb2sDL05Z599drk8TDURoL3wwgvFk08+WXz00UdlWtermTJfd911xXPPPVe+npmZKc4666xyObDOgQceWC6vW7euuPnmm4vDDjusfK3ezjzzzOL1118vZmdni1NOOaVOlSRJUj8EaLSt77vvvvKL76mpqeK1116r322Xtm/Z5oorrihOOOGEiWm/2qPWggvihhtuqF8N54ADDiiuueaagS6grqDMl19+ef2q+EWQhjfffLNYuXJlGWw8+uijBmmSJEna5Whzrl+/vnj66afrlP4I0viinCBty5YtZbucnrhJar8aqLVYu3Zt8dBDD9WvlobgZ9WqVfWr7tt3333rpV969tlnyy7jt99+2x4hSZIk7XZHHnlkvdRbBGnc2TY9PV12oEwiA7UG3Ld6xhlnNPYqDavrz6cNIg3SjjnmmDpVkiRJ2n0G7Q3jdkeCtE2bNk30gHQGahkeNnz++eeLG2+8sU5Z3ghaH3jggeLLL78cOEijDvlQxIAjfKPBoBo58o6HOpkTDOYfJoJEtmdKxUOhbAvyZ53Ii+cLwTcqrMeIi7zHMmmBZfZx/PHHl+WJ9Vk3X599RjpT+iBq7DumQXGLLccc5WOelxEcT5QLlIUy85p5U/1KkiQtN7SRuN2Rx3WuvPLKOnUyGaglaBzzkCGDgHDb4nJHYEDQyj29g9YHQc+5555bXH/99eUAKjzP9sEHHxSnnnrqTsEEQc4TTzxRvPHGG+V627ZtKz788MPiP//5T71GtQ7pDMKRYh/PPPNM8dhjjy2+vuqqq4rTTjutvGV1+/bt5SAw7O+yyy4r12HwEz6wbPPggw+WafFgKoFoDPpCwEU5Vq9eXb5m/QgSueWTsrKPHHXEACzD4HpjP5SXQJi8b7nllnKfUW4QpD311FM7He9dd91VXHTRReWDsZT9ggsuKN+TJElazmgjgrvjaOfFF9ttX4Z32kLjULWFBvj89PR0/apCFY1STQsN6ZG2350WgqrF441yLwQ49bv9LQQc5Tbkk9q0adNinoHljRs31q8qbJeugyhTng7SmfJzFmVnTplC5LVq1ao6pRLlIz0tO/k27SPWZ56L9XNRpjT/LVu2NObTlMeOHTsW0/Pjpdykz83N1SmSJEl7J9o8Te3CsHLlysV1ot1Fe3D16tVlOvNJYY9ajd87I9Ke5PtYxynuAaYXh28fBsHvhTF4Sj7YyEknnVTO6RlLv8Ug77SXje2WMhJPfs7oWYt5ml+Uix6sJldfffVOZSdfeuJAz964HXzwweX86KOPLue9pD2a+fHGc5A///xzOZckSVqOaFfG79Zu2rRpsV1He5C7n7i7ijuRaPdPAgO1BZxUbne888476xQx/P709HS5PGiw9vHHH5dBEN3L6bRmzZp6jaL44osvyjk/fcAH6dhjjy3zjoCN/XbJOeecU87z2y/HgcFq5ufnyzkBbDwrJ0mSpOGlX1rnYyvwpXd8Af/SSy+V864zUFtw7733ltE1P+acBxkhXvOA4nJBz00arBFE9Luvl2euCD7apvhmg+CEoG5qaqrMm4CNZ8F4bqxLev1kwThQn/zC/oknnlh89tln5RcGkiRJGr+TTz65XpoMBmoLuF2PgKFpCvF6n332qVOWhzRYI5glmOoVrLFOv2AuRDf07OxsWbf0WhHoDbr97kS5xo1exCOOOKLsiXz//feLu+++258/kCRJWqL0EZamL/939Rfw42agtoAGMgFD0xTi9XJsSBOszc3NLd7X2xasxfNgd9xxRznPcT9wfGjoRQp8qKhbuqO5HZIRerriv//9bzln5KBxoyeX4+V2T0cZlSRJGl2Mzs2o47lo151//vnlvOsM1EZA4NHvYcSvvvqqXmo3SD67Q1y8TQhQ+cHrCNa4VS8dCASXXnppOedWRoK7eJ+gjuPjfuAI5uhFym8jje33lG+++aZe+h+GxUf6OxwxOMpbb71VzsOw55CfJsB3331XzpF/+zOu3sW2a8z0iukV0yumV0yvmF4xvWJ6ZVentxnkEZlbb721nN9+++3lPEW7jrbshRdeWKd03Lx6ooqaqimGemdKh1xPMVx6rJMPqR4GyWd3YPh3fp4gysLQ8TnWiaFNY2KI/XRYeF6n78fEUKnpelNTU2Va1EvsnzSWQzp0fpo+MzOzmHeab3oczNNt2uo69sEUx812kZ6fO96jnLzHPliP40nPN+mUEQwJG+un9Rrl5D3y4KcQSIt1eU06KEPknR9vDM+f/9xBaDtu0yumV0yvmF4xvWJ6xfSK6ZVdnd5L/LQRE+2rNtFuoi1FWylt1w26ry4wUOsjLoZcNJDzACLEdvmU65fP7hAXbtOUXsxN78cUAQUIUNKAjuAj/zCRRnCT5pGvl74XE+XJt2MiLf3Ap1PbNlHmOP4IlOJ9jqHtw8wxRoAUQRoIssgnXreVCZzvKBd5RRAXwW4EXm3H23becm3XmOkV0yumV0yvmF4xvWJ6xfTKrk5v0taeoj3Upqk9mn7ZPQlW8M9C4aVla/PmzcWGDRvK39tYv359nSpJkiTtOT6jJkmSJEkdY6AmSZIkSR1joKZljVEVP/nkk3KZeRd/w02SJEnLj8+oadni5wHWrFlTv/qf2dnZnX4wUZIkSdrdDNQkSZIkqWO89VGSJEmSOsZATZIkSZI6xkBNkiRJkjqlKP4frj4ReDUQtGAAAAAASUVORK5CYII=;" parent="1" vertex="1">
          <mxGeometry x="980" y="30" width="874" height="810" as="geometry" />
        </mxCell>
        <mxCell id="SCKcZwcJa6YqW5fdVs9M-7" style="edgeStyle=orthogonalEdgeStyle;rounded=0;orthogonalLoop=1;jettySize=auto;html=1;" parent="1" source="SCKcZwcJa6YqW5fdVs9M-3" edge="1">
          <mxGeometry relative="1" as="geometry">
            <mxPoint x="220" y="150" as="targetPoint" />
            <Array as="points">
              <mxPoint x="190" y="230" />
              <mxPoint x="190" y="150" />
            </Array>
          </mxGeometry>
        </mxCell>
        <mxCell id="SCKcZwcJa6YqW5fdVs9M-8" style="edgeStyle=orthogonalEdgeStyle;rounded=0;orthogonalLoop=1;jettySize=auto;html=1;" parent="1" source="SCKcZwcJa6YqW5fdVs9M-3" target="SCKcZwcJa6YqW5fdVs9M-5" edge="1">
          <mxGeometry relative="1" as="geometry" />
        </mxCell>
        <mxCell id="SCKcZwcJa6YqW5fdVs9M-9" style="edgeStyle=orthogonalEdgeStyle;rounded=0;orthogonalLoop=1;jettySize=auto;html=1;entryX=0;entryY=0.5;entryDx=0;entryDy=0;" parent="1" source="SCKcZwcJa6YqW5fdVs9M-3" target="SCKcZwcJa6YqW5fdVs9M-6" edge="1">
          <mxGeometry relative="1" as="geometry" />
        </mxCell>
        <mxCell id="SCKcZwcJa6YqW5fdVs9M-3" value="tinjauan umum" style="rounded=0;whiteSpace=wrap;html=1;" parent="1" vertex="1">
          <mxGeometry x="30" y="200" width="120" height="60" as="geometry" />
        </mxCell>
        <mxCell id="SCKcZwcJa6YqW5fdVs9M-11" value="" style="edgeStyle=orthogonalEdgeStyle;rounded=0;orthogonalLoop=1;jettySize=auto;html=1;" parent="1" source="SCKcZwcJa6YqW5fdVs9M-4" target="SCKcZwcJa6YqW5fdVs9M-10" edge="1">
          <mxGeometry relative="1" as="geometry" />
        </mxCell>
        <mxCell id="SCKcZwcJa6YqW5fdVs9M-4" value="sejarah" style="rounded=0;whiteSpace=wrap;html=1;" parent="1" vertex="1">
          <mxGeometry x="230" y="120" width="120" height="60" as="geometry" />
        </mxCell>
        <mxCell id="SCKcZwcJa6YqW5fdVs9M-13" value="" style="edgeStyle=orthogonalEdgeStyle;rounded=0;orthogonalLoop=1;jettySize=auto;html=1;" parent="1" source="SCKcZwcJa6YqW5fdVs9M-5" target="SCKcZwcJa6YqW5fdVs9M-12" edge="1">
          <mxGeometry relative="1" as="geometry" />
        </mxCell>
        <mxCell id="SCKcZwcJa6YqW5fdVs9M-5" value="profil" style="rounded=0;whiteSpace=wrap;html=1;" parent="1" vertex="1">
          <mxGeometry x="230" y="200" width="120" height="60" as="geometry" />
        </mxCell>
        <mxCell id="SCKcZwcJa6YqW5fdVs9M-15" value="" style="edgeStyle=orthogonalEdgeStyle;rounded=0;orthogonalLoop=1;jettySize=auto;html=1;" parent="1" source="SCKcZwcJa6YqW5fdVs9M-6" target="SCKcZwcJa6YqW5fdVs9M-14" edge="1">
          <mxGeometry relative="1" as="geometry" />
        </mxCell>
        <mxCell id="SCKcZwcJa6YqW5fdVs9M-6" value="stuktur&amp;nbsp;" style="rounded=0;whiteSpace=wrap;html=1;" parent="1" vertex="1">
          <mxGeometry x="230" y="280" width="120" height="60" as="geometry" />
        </mxCell>
        <mxCell id="SCKcZwcJa6YqW5fdVs9M-10" value="sejarah" style="rounded=0;whiteSpace=wrap;html=1;" parent="1" vertex="1">
          <mxGeometry x="430" y="120" width="120" height="60" as="geometry" />
        </mxCell>
        <mxCell id="SCKcZwcJa6YqW5fdVs9M-12" value="budaya kerja" style="rounded=0;whiteSpace=wrap;html=1;" parent="1" vertex="1">
          <mxGeometry x="430" y="200" width="120" height="60" as="geometry" />
        </mxCell>
        <mxCell id="SCKcZwcJa6YqW5fdVs9M-14" value="bagan organisasi" style="whiteSpace=wrap;html=1;rounded=0;" parent="1" vertex="1">
          <mxGeometry x="430" y="280" width="120" height="60" as="geometry" />
        </mxCell>
        <mxCell id="SCKcZwcJa6YqW5fdVs9M-18" value="" style="edgeStyle=orthogonalEdgeStyle;rounded=0;orthogonalLoop=1;jettySize=auto;html=1;" parent="1" source="SCKcZwcJa6YqW5fdVs9M-16" target="SCKcZwcJa6YqW5fdVs9M-17" edge="1">
          <mxGeometry relative="1" as="geometry" />
        </mxCell>
        <mxCell id="SCKcZwcJa6YqW5fdVs9M-16" value="tinjauan pustaka" style="rounded=0;whiteSpace=wrap;html=1;" parent="1" vertex="1">
          <mxGeometry x="20" y="405" width="120" height="60" as="geometry" />
        </mxCell>
        <mxCell id="SCKcZwcJa6YqW5fdVs9M-20" value="" style="edgeStyle=orthogonalEdgeStyle;rounded=0;orthogonalLoop=1;jettySize=auto;html=1;" parent="1" source="SCKcZwcJa6YqW5fdVs9M-17" target="SCKcZwcJa6YqW5fdVs9M-19" edge="1">
          <mxGeometry relative="1" as="geometry" />
        </mxCell>
        <mxCell id="SCKcZwcJa6YqW5fdVs9M-17" value="SUPLAY CHAIN MANAJEMENT" style="whiteSpace=wrap;html=1;rounded=0;" parent="1" vertex="1">
          <mxGeometry x="220" y="405" width="120" height="60" as="geometry" />
        </mxCell>
        <mxCell id="SCKcZwcJa6YqW5fdVs9M-22" value="" style="edgeStyle=orthogonalEdgeStyle;rounded=0;orthogonalLoop=1;jettySize=auto;html=1;" parent="1" source="SCKcZwcJa6YqW5fdVs9M-19" target="SCKcZwcJa6YqW5fdVs9M-21" edge="1">
          <mxGeometry relative="1" as="geometry" />
        </mxCell>
        <mxCell id="SCKcZwcJa6YqW5fdVs9M-19" value="PENGADAAN BARANG / LOGISTIK" style="whiteSpace=wrap;html=1;rounded=0;" parent="1" vertex="1">
          <mxGeometry x="420" y="405" width="120" height="60" as="geometry" />
        </mxCell>
        <mxCell id="SCKcZwcJa6YqW5fdVs9M-24" value="" style="edgeStyle=orthogonalEdgeStyle;rounded=0;orthogonalLoop=1;jettySize=auto;html=1;" parent="1" source="SCKcZwcJa6YqW5fdVs9M-21" target="SCKcZwcJa6YqW5fdVs9M-23" edge="1">
          <mxGeometry relative="1" as="geometry" />
        </mxCell>
        <mxCell id="SCKcZwcJa6YqW5fdVs9M-25" value="" style="edgeStyle=orthogonalEdgeStyle;rounded=0;orthogonalLoop=1;jettySize=auto;html=1;" parent="1" source="SCKcZwcJa6YqW5fdVs9M-21" target="SCKcZwcJa6YqW5fdVs9M-23" edge="1">
          <mxGeometry relative="1" as="geometry" />
        </mxCell>
        <mxCell id="SCKcZwcJa6YqW5fdVs9M-27" value="" style="edgeStyle=orthogonalEdgeStyle;rounded=0;orthogonalLoop=1;jettySize=auto;html=1;" parent="1" source="SCKcZwcJa6YqW5fdVs9M-21" target="SCKcZwcJa6YqW5fdVs9M-26" edge="1">
          <mxGeometry relative="1" as="geometry" />
        </mxCell>
        <mxCell id="SCKcZwcJa6YqW5fdVs9M-29" value="" style="edgeStyle=orthogonalEdgeStyle;rounded=0;orthogonalLoop=1;jettySize=auto;html=1;" parent="1" source="SCKcZwcJa6YqW5fdVs9M-21" target="SCKcZwcJa6YqW5fdVs9M-28" edge="1">
          <mxGeometry relative="1" as="geometry" />
        </mxCell>
        <mxCell id="SCKcZwcJa6YqW5fdVs9M-21" value="MANAJEMEN PERGUDANGAN" style="whiteSpace=wrap;html=1;rounded=0;" parent="1" vertex="1">
          <mxGeometry x="620" y="405" width="120" height="60" as="geometry" />
        </mxCell>
        <mxCell id="SCKcZwcJa6YqW5fdVs9M-23" value="PUT AWAY" style="whiteSpace=wrap;html=1;rounded=0;" parent="1" vertex="1">
          <mxGeometry x="500" y="540" width="120" height="60" as="geometry" />
        </mxCell>
        <mxCell id="SCKcZwcJa6YqW5fdVs9M-26" value="RECEIVING" style="whiteSpace=wrap;html=1;rounded=0;" parent="1" vertex="1">
          <mxGeometry x="710" y="540" width="120" height="60" as="geometry" />
        </mxCell>
        <mxCell id="SCKcZwcJa6YqW5fdVs9M-28" value="" style="whiteSpace=wrap;html=1;rounded=0;" parent="1" vertex="1">
          <mxGeometry x="620" y="610" width="120" height="60" as="geometry" />
        </mxCell>
      </root>
    </mxGraphModel>
  </diagram>
</mxfile>
